<svg width="64" height="65" viewBox="0 0 64 65" fill="none" xmlns="http://www.w3.org/2000/svg">
<path d="M32 0C49.7 0 64 14.3 64 32V33C64 50.7 49.7 65 32 65C14.3 65 0 50.7 0 33V32C0 14.3 14.3 0 32 0Z" fill="#00528C"/>
<path d="M45.7 46V35.9C45.7 31 44.7 27.2 38.9 27.2C36.1 27.2 34.3 28.6999 33.5 30.0999H33.4V27.5999H28V46H33.7V36.9C33.7 34.5 34.1 32.2 37.1 32.2C40 32.2 40.1 34.8999 40.1 37.0999V46H45.7Z" fill="white"/>
<path d="M18.7 27.6H24.4V46H18.7V27.6Z" fill="white"/>
<path d="M21.6 18.5C19.7 18.5 18.2 20 18.2 21.8C18.2 23.6 19.7 25.1 21.6 25.1C23.4 25.1 24.9 23.6 24.9 21.8C24.9 20 23.4 18.5 21.6 18.5Z" fill="white"/>
</svg>
