<svg width="61" height="63" viewBox="0 0 61 63" fill="none" xmlns="http://www.w3.org/2000/svg">
<path d="M30.4001 0.700195C47.2001 0.700195 60.7001 14.3 60.7001 31V32C60.7001 48.7 47.2001 62.2998 30.4001 62.2998C13.7001 62.2998 0.100098 48.7 0.100098 32V31C0.100098 14.3 13.7001 0.700195 30.4001 0.700195Z" fill="#F0F5FF"/>
<path fill-rule="evenodd" clip-rule="evenodd" d="M43.7001 31.5C43.7001 35 43.7001 35.3998 43.6001 36.7998C43.6001 38.0998 43.3001 39.0999 43.0001 39.8999C42.4001 41.5999 41.0001 43.0001 39.3001 43.6001C38.5001 43.9001 37.5001 44.2002 36.2001 44.2002C34.8001 44.3002 34.4001 44.2998 30.9001 44.2998C27.4001 44.2998 27.0001 44.3002 25.6001 44.2002C24.3001 44.2002 23.3001 43.9001 22.5001 43.6001C21.7001 43.3001 20.9001 42.8001 20.3001 42.1001C19.6334 41.5001 19.1334 40.7666 18.8001 39.8999C18.5001 39.0999 18.3001 38.0998 18.2001 36.7998C18.1001 35.3998 18.1001 35 18.1001 31.5C18.1001 28 18.1001 27.6002 18.2001 26.2002C18.3001 24.9002 18.5001 23.9001 18.8001 23.1001C19.1001 22.3001 19.6001 21.4999 20.3001 20.8999C20.9001 20.2332 21.6335 19.7332 22.5001 19.3999C23.3001 19.0999 24.3001 18.7998 25.6001 18.7998C27.0001 18.6998 27.4001 18.7002 30.9001 18.7002C34.4001 18.7002 34.8001 18.6998 36.2001 18.7998C37.5001 18.7998 38.5001 19.0999 39.3001 19.3999C40.1001 19.6999 40.9001 20.1999 41.6001 20.8999C42.2001 21.4999 42.6668 22.2334 43.0001 23.1001C43.3001 23.9001 43.6001 24.9002 43.6001 26.2002C43.7001 27.6002 43.7001 28 43.7001 31.5ZM41.4001 31.5C41.4001 28.1 41.4001 27.6998 41.3001 26.2998C41.3001 25.0998 41.1001 24.4 40.9001 24C40.7001 23.4 40.3668 22.9 39.9001 22.5C39.5001 22.1 39.0335 21.7667 38.5001 21.5C38.0001 21.4 37.3001 21.2001 36.1001 21.1001C34.7001 21.0001 34.3001 21 30.9001 21C27.5001 21 27.1001 21.0001 25.8001 21.1001C24.5001 21.2001 23.8001 21.4 23.4001 21.5C22.8001 21.7667 22.3001 22.1 21.9001 22.5C21.5001 22.9 21.2001 23.4 21.0001 24C20.8001 24.4 20.6001 25.0998 20.5001 26.2998C20.5001 27.6998 20.4001 28.1 20.4001 31.5C20.4001 34.9 20.5001 35.3002 20.5001 36.7002C20.6001 37.9002 20.8001 38.6001 21.0001 39.1001C21.2001 39.6334 21.5001 40.1 21.9001 40.5C22.3001 40.9667 22.8001 41.3 23.4001 41.5C23.8001 41.7 24.5001 41.8999 25.8001 41.8999C27.1001 41.9999 27.5001 42 30.9001 42C34.3001 42 34.7001 41.9999 36.1001 41.8999C37.3001 41.8999 38.0001 41.7 38.5001 41.5C39.6001 41 40.5001 40.2 40.9001 39C41.1001 38.6 41.3001 37.9002 41.3001 36.7002C41.4001 35.3002 41.4001 34.9 41.4001 31.5Z" fill="#01538D"/>
<path fill-rule="evenodd" clip-rule="evenodd" d="M37.5001 31.5C37.5001 35.1 34.5001 38.1001 30.9001 38.1001C27.3001 38.1001 24.3 35.1 24.3 31.5C24.3 27.9 27.3001 24.8999 30.9001 24.8999C34.5001 24.8999 37.5001 27.9 37.5001 31.5ZM30.9001 35.7998C33.3001 35.7998 35.2001 33.9 35.2001 31.5C35.2001 29.1 33.3001 27.2002 30.9001 27.2002C28.6001 27.2002 26.6 29.1 26.6 31.5C26.6 33.9 28.6001 35.7998 30.9001 35.7998Z" fill="#01538D"/>
<path d="M39.3002 24.7002C39.3002 25.5002 38.6002 26.2002 37.7002 26.2002C36.9002 26.2002 36.2002 25.5002 36.2002 24.7002C36.2002 23.8002 36.9002 23.1001 37.7002 23.1001C38.6002 23.1001 39.3002 23.8002 39.3002 24.7002Z" fill="#01538D"/>
</svg>
