<svg width="64" height="65" viewBox="0 0 64 65" fill="none" xmlns="http://www.w3.org/2000/svg">
<path d="M32 0C49.7 0 64 14.3 64 32V33C64 50.7 49.7 65 32 65C14.3 65 0 50.7 0 33V32C0 14.3 14.3 0 32 0Z" fill="#00528C"/>
<path fill-rule="evenodd" clip-rule="evenodd" d="M46 32.5C46 36.2 46 36.6 45.9 38.1C45.9 39.5 45.6 40.5 45.3 41.3C44.6 43.2 43.2 44.6 41.3 45.3C40.5 45.6 39.5 45.9 38.1 45.9C36.6 46 36.2 46 32.5 46C28.8 46 28.4 46 26.9 45.9C25.5 45.9 24.5 45.6 23.7 45.3C22.8 45 21.9 44.4 21.3 43.7C20.5667 43.0333 20.0333 42.2333 19.7 41.3C19.4 40.5 19.1 39.5 19.1 38.1C19 36.6 19 36.2 19 32.5C19 28.8 19 28.4 19.1 26.9C19.2 25.5 19.4 24.5 19.7 23.7C20.1 22.8 20.6 21.9 21.3 21.3C21.9667 20.5667 22.7666 20.0333 23.7 19.7C24.5 19.4 25.5 19.1 26.9 19.1C28.4 19 28.8 19 32.5 19C36.2 19 36.6 19 38.1 19.1C39.5 19.1 40.5 19.4 41.4 19.7C42.2 20 43.1 20.6 43.7 21.3C44.4333 21.9667 44.9667 22.7667 45.3 23.7C45.6 24.5 45.9 25.5 45.9 26.9C46 28.4 46 28.8 46 32.5ZM43.6 32.5C43.6 28.9 43.6 28.5 43.5 27.1C43.4 25.7 43.2 25 43 24.6C42.8 24 42.4667 23.4667 42 23C41.6 22.5333 41.1 22.2 40.5 22C40 21.8 39.3 21.6 38 21.5C36.6 21.5 36.1 21.5 32.5 21.5C28.9 21.5 28.5 21.5 27.1 21.5C25.8 21.6 25 21.8 24.6 22C24 22.2 23.4667 22.5333 23 23C22.5333 23.4667 22.2 24 22 24.6C21.8 25 21.6 25.7 21.5 27.1C21.5 28.5 21.5 28.9 21.5 32.5C21.5 36.1 21.5 36.5 21.5 38C21.6 39.3 21.8 40 22 40.5C22.2 41.1 22.5333 41.6 23 42C23.4667 42.4667 24 42.8 24.6 43C25 43.2 25.7 43.4 27.1 43.5C28.5 43.6 28.9 43.6 32.5 43.6C36.1 43.6 36.5 43.6 38 43.5C39.3 43.4 40 43.2 40.5 43C41.6 42.6 42.6 41.6 43 40.5C43.2 40 43.4 39.3 43.5 38C43.6 36.5 43.6 36.1 43.6 32.5Z" fill="white"/>
<path fill-rule="evenodd" clip-rule="evenodd" d="M39.4001 32.5C39.4001 36.3 36.3001 39.4 32.5001 39.4C28.7001 39.4 25.6001 36.3 25.6001 32.5C25.6001 28.7 28.7001 25.6 32.5001 25.6C36.3001 25.6 39.4001 28.7 39.4001 32.5ZM32.5001 37C35.0001 37 37.0001 35 37.0001 32.5C37.0001 30 35.0001 28 32.5001 28C30.0001 28 28.0001 30 28.0001 32.5C28.0001 35 30.0001 37 32.5001 37Z" fill="white"/>
<path d="M41.3002 25.2999C41.3002 26.1999 40.6001 26.9 39.7001 26.9C38.8001 26.9 38.1001 26.1999 38.1001 25.2999C38.1001 24.3999 38.8001 23.7 39.7001 23.7C40.6001 23.7 41.3002 24.3999 41.3002 25.2999Z" fill="white"/>
</svg>
