<svg width="61" height="63" viewBox="0 0 61 63" fill="none" xmlns="http://www.w3.org/2000/svg">
<path d="M30.3 0.700195C47.1 0.700195 60.6 14.3 60.6 31V32C60.6 48.7 47.1 62.2998 30.3 62.2998C13.6 62.2998 0 48.7 0 32V31C0 14.3 13.6 0.700195 30.3 0.700195Z" fill="#F0F5FF"/>
<path d="M32.2999 45.2002V33.1001H36.2L36.7999 28.3999H32.2999V25.3999C32.2999 23.9999 32.6999 23.1001 34.4999 23.1001H36.9999V18.8999C36.4999 18.7999 35.0999 18.7002 33.3999 18.7002C29.9999 18.7002 27.5999 20.8999 27.5999 24.8999V28.3999H23.7V33.1001H27.5999V45.2002H32.2999Z" fill="#01538D"/>
</svg>
