<svg width="38" height="38" viewBox="0 0 38 38" fill="none" xmlns="http://www.w3.org/2000/svg">
<path fill-rule="evenodd" clip-rule="evenodd" d="M37.2 19C37.2 29 29.0001 37.2 19.0001 37.2C16.1001 37.2 13.3001 36.5 10.9001 35.3C10.3001 34.9 9.50011 34.8 8.80011 35L4.80011 36.1C4.40011 36.2333 4.00004 36.2333 3.60004 36.1C3.20004 35.9666 2.83339 35.7667 2.50006 35.5C2.23339 35.1667 2.03342 34.8 1.90009 34.4C1.76675 34 1.76675 33.6 1.90009 33.2L3.00006 29.2C3.20006 28.5 3.10001 27.7 2.70001 27.1C1.50001 24.6 0.800049 21.8 0.800049 19C0.800049 9 9.00006 0.800049 19.0001 0.800049C29.0001 0.800049 37.2 9 37.2 19ZM18.0001 10.8C17.8001 11 17.6 11.4 17.6 11.7V11.8C15.7 12.3 14.0001 13.8 14.0001 16C14.0001 18.6 16.5001 20.4 19.0001 20.4C20.5001 20.4 21.3001 21.3 21.3001 22C21.3001 22.7 20.5001 23.7 19.0001 23.7C17.5001 23.7 16.7 22.7 16.7 22C16.7 21.7 16.6001 21.3 16.3001 21.1C16.1001 20.8 15.7001 20.7 15.4001 20.7C15.0001 20.7 14.7001 20.8 14.4001 21.1C14.2001 21.3 14.0001 21.7 14.0001 22C14.0001 24.2 15.7 25.7 17.6 26.2V26.3C17.6 26.6 17.8001 27 18.0001 27.2C18.3001 27.5 18.6001 27.6 19.0001 27.6C19.4001 27.6 19.7001 27.5 20.0001 27.2C20.2001 27 20.4001 26.6 20.4001 26.3V26.2C22.3001 25.7 24.0001 24.2 24.0001 22C24.0001 19.4 21.5001 17.6 19.0001 17.6C17.5001 17.6 16.7 16.7 16.7 16C16.7 15.3 17.5001 14.3 19.0001 14.3C20.5001 14.3 21.3001 15.3 21.3001 16C21.3001 16.3 21.4 16.7 21.7 16.9C21.9 17.2 22.3 17.3 22.6 17.3C23 17.3 23.3 17.2 23.6 16.9C23.8 16.7 24.0001 16.3 24.0001 16C24.0001 13.8 22.3001 12.3 20.4001 11.8V11.7C20.4001 11.4 20.2001 11 20.0001 10.8C19.7001 10.5 19.4001 10.4 19.0001 10.4C18.6001 10.4 18.3001 10.5 18.0001 10.8Z" fill="white"/>
</svg>
