<svg width="89" height="80" viewBox="0 0 89 80" fill="none" xmlns="http://www.w3.org/2000/svg">
<path d="M20.9001 77.7998H6.80011C6.13344 77.7998 5.53346 77.7 5.00012 77.5C4.40012 77.2333 3.90012 76.8666 3.50012 76.3999C3.03346 75.9999 2.66681 75.4999 2.40015 74.8999C2.20015 74.2999 2.1001 73.7001 2.1001 73.1001V21.2998" stroke="#01538D" stroke-width="4" stroke-miterlimit="100"/>
<path d="M68.1 40.1001H39.8" stroke="#01538D" stroke-width="4" stroke-miterlimit="100"/>
<path d="M68.1 21.1001H39.8" stroke="#01538D" stroke-width="4" stroke-miterlimit="100"/>
<path d="M82.2001 2.3999H25.6001C25.0001 2.3999 24.4001 2.53314 23.8001 2.7998C23.2668 2.9998 22.7668 3.33314 22.3001 3.7998C21.8334 4.1998 21.5001 4.6998 21.3001 5.2998C21.0334 5.8998 20.9001 6.5001 20.9001 7.1001V54.2998C20.9001 54.8998 21.0334 55.5001 21.3001 56.1001C21.5001 56.6334 21.8334 57.1334 22.3001 57.6001C22.7668 58.0001 23.2668 58.3334 23.8001 58.6001C24.4001 58.8668 25.0001 59 25.6001 59H39.8001V73.1001L63.4001 59H82.2001C83.5001 59 84.7001 58.5001 85.5001 57.6001C86.4001 56.7001 86.9001 55.4998 86.9001 54.2998V7.1001C86.9001 6.5001 86.8001 5.8998 86.6001 5.2998C86.3334 4.6998 85.9668 4.1998 85.5001 3.7998C85.1001 3.33314 84.6001 2.9998 84.0001 2.7998C83.4668 2.53314 82.8668 2.3999 82.2001 2.3999Z" stroke="#01538D" stroke-width="4" stroke-miterlimit="100"/>
</svg>
