<svg width="36" height="35" viewBox="0 0 36 35" fill="none" xmlns="http://www.w3.org/2000/svg">
<path d="M4.3999 11.1H31.5999C32.9999 11.1 34.0999 12.2 34.0999 13.6V30.6C34.0999 32 32.9999 33.1 31.5999 33.1H4.3999C2.9999 33.1 1.8999 32 1.8999 30.6V13.6C1.8999 12.2 2.9999 11.1 4.3999 11.1Z" fill="white" stroke="white" stroke-width="3.4" stroke-miterlimit="100"/>
<path d="M13.8 4.30005H22.2V0.900024H13.8V4.30005ZM23.1 5.09998V11.1H26.5V5.09998H23.1ZM12.9 11.1V5.09998H9.5V11.1H12.9ZM22.2 4.30005C22.4667 4.30005 22.6667 4.36667 22.8 4.5C23 4.7 23.1 4.89998 23.1 5.09998C26.5 3.99998 26 2.89998 25.3 2.09998C24.5 1.29998 23.4 0.900024 22.2 0.900024M13.8 0.900024C12.6 0.900024 11.5 1.29998 10.7 2.09998C9.90001 2.89998 9.5 3.99998 9.5 5.09998C12.9 4.89998 13 4.7 13.2 4.5C13.3333 4.36667 13.5333 4.30005 13.8 4.30005" fill="white"/>
<path d="M23.0999 22.1H12.8999ZM17.9999 27.2V17Z" fill="#00528C"/>
<path d="M23.0999 22.1H12.8999M17.9999 27.2V17" stroke="black" stroke-width="3.4" stroke-miterlimit="100"/>
</svg>
