<svg width="61" height="63" viewBox="0 0 61 63" fill="none" xmlns="http://www.w3.org/2000/svg">
<path d="M30.6999 0.700195C47.3999 0.700195 60.9999 14.3 60.9999 31V32C60.9999 48.7 47.3999 62.2998 30.6999 62.2998C13.8999 62.2998 0.399902 48.7 0.399902 32V31C0.399902 14.3 13.8999 0.700195 30.6999 0.700195Z" fill="#F0F5FF"/>
<path d="M45.7999 22.2002C44.6666 22.6669 43.4999 22.9668 42.2999 23.1001C43.5999 22.4001 44.4999 21.1998 44.9999 19.7998C43.7999 20.4665 42.4999 20.9335 41.0999 21.2002C39.9999 20.1002 38.4999 19.2998 36.6999 19.2998C33.3999 19.2998 30.6999 21.9999 30.6999 25.3999C30.6999 25.8666 30.7666 26.3002 30.8999 26.7002C25.8999 26.5002 21.3999 24.0999 18.3999 20.3999C17.8999 21.2999 17.5999 22.4 17.5999 23.5C17.5999 25.6 18.6999 27.4 20.2999 28.5C19.2999 28.5 18.3999 28.2002 17.5999 27.7002C17.5999 27.7669 17.5999 27.7998 17.5999 27.7998C17.5999 30.6998 19.6999 33.2002 22.3999 33.7002C21.9332 33.8335 21.3999 33.8999 20.7999 33.8999C20.3999 33.8999 20.0333 33.8665 19.6999 33.7998C20.4999 36.1998 22.6999 38 25.2999 38C23.2999 39.6 20.6999 40.6001 17.7999 40.6001C17.3332 40.6001 16.8666 40.5667 16.3999 40.5C19.0999 42.2 22.1999 43.2002 25.5999 43.2002C36.6999 43.2002 42.7999 34.0001 42.7999 26.1001C42.7999 25.8334 42.7999 25.5665 42.7999 25.2998C43.9332 24.4331 44.9332 23.4002 45.7999 22.2002Z" fill="#01538D"/>
</svg>
