<svg width="64" height="65" viewBox="0 0 64 65" fill="none" xmlns="http://www.w3.org/2000/svg">
<path d="M32 0C49.7 0 64 14.3 64 32V33C64 50.7 49.7 65 32 65C14.3 65 0 50.7 0 33V32C0 14.3 14.3 0 32 0Z" fill="#00528C"/>
<path d="M47.8999 22.5999C46.7666 23.1333 45.5666 23.4666 44.2999 23.5999C45.5999 22.8999 46.5999 21.5999 47.0999 20.0999C45.8332 20.8333 44.4665 21.3666 42.9999 21.7C41.8999 20.4 40.1999 19.7 38.3999 19.7C34.8999 19.7 31.9999 22.5 31.9999 26C31.9999 26.5333 32.0665 27.0333 32.1998 27.5C26.8998 27.2 22.1999 24.6999 19.0999 20.7999C18.4999 21.7999 18.1998 22.9 18.1998 24C18.1998 26.2 19.2999 28.1999 20.9999 29.2999C19.9999 29.2999 18.9998 29 18.1998 28.5C18.1998 28.5666 18.1998 28.5999 18.1998 28.5999C18.1998 31.6999 20.3999 34.2 23.2999 34.8C22.7666 35 22.1999 35.0666 21.5999 35C21.1999 35.0666 20.7999 35.0333 20.3999 34.9C21.1999 37.5 23.4999 39.3 26.2999 39.4C24.1999 41.1 21.3999 42.0999 18.3999 42.0999C17.9332 42.0999 17.4332 42.0666 16.8999 42C19.6999 43.8 23.0998 44.8 26.6998 44.8C38.3998 44.8 44.7999 35.1999 44.7999 26.7999C44.7999 26.4666 44.7665 26.1666 44.6998 25.9C45.9665 25.0333 47.0332 23.9333 47.8999 22.5999Z" fill="white"/>
</svg>
