<svg width="138" height="137" viewBox="0 0 138 137" fill="none" xmlns="http://www.w3.org/2000/svg">
<path opacity="0.7" d="M68.9999 137C31.2999 137 0.899902 106.5 0.899902 68.8999C0.899902 31.1999 31.2999 0.799805 68.9999 0.799805C106.7 0.799805 137.1 31.1999 137.1 68.8999C137.1 106.5 106.7 137 68.9999 137Z" fill="#D8E0EF"/>
<path d="M69.0001 126.3C37.2001 126.3 11.6001 100.6 11.6001 68.8999C11.6001 37.0999 37.2001 11.3999 69.0001 11.3999C100.8 11.3999 126.4 37.0999 126.4 68.8999C126.4 100.6 100.8 126.3 69.0001 126.3Z" fill="#0E5A91"/>
<path d="M42.1999 95.7998H43.1999C62.5999 68.3998 48.0999 71.7001 37.8999 77.6001C73.4999 75.0001 72.8999 74.5001 72.2999 74.1001C74.8999 76.8001 74.4999 76.1 73.9999 75.5C75.4999 79 75.3999 78.2 75.1999 77.5C75.1999 81.3 75.3999 80.4998 75.4999 79.7998C74.0999 83.2998 74.5999 82.7 74.8999 82C72.4999 84.5 72.9999 84.1998 73.4999 83.7998C72.7999 84.5998 72.2999 84.7002 71.8999 84.7002C79.6999 82.1002 76.6999 84 73.1999 84.5C89.3999 74.8 82.3999 80 82.3999 80C92.0999 73.4 90.5999 73.8998 89.3999 74.7998C96.6999 73.8998 95.1999 73.3999 93.5999 73.3999C100.8 79.1999 100.1 76.3998 97.8999 74.7998C95.4999 87.3998 97.7999 84.0999 99.3999 81.3999C87.7999 93.2999 91.0999 91.5 93.2999 89.5C78.7999 96.9 82.0999 96.1001 85.0999 94.6001C61.5999 98.4001 68.6999 98.4999 75.4999 97.3999C47.0999 95.7999 50.9999 96.2 54.8999 97" stroke="white" stroke-width="2" stroke-miterlimit="100"/>
<path d="M72.5 46.6001H68.1C67.4 46.6001 66.8 46.8998 66.3 47.2998C65.8 47.7998 65.5 48.5002 65.5 49.2002C65.5 49.9002 65.8 50.6001 66.3 51.1001C66.8 51.6001 67.4 51.7998 68.1 51.7998H69.9C70.6 51.7998 71.2 52.1001 71.7 52.6001C72.2 53.1001 72.5 53.8 72.5 54.5C72.5 55.2 72.2 55.7998 71.7 56.2998C71.2 56.7998 70.6 57.1001 69.9 57.1001H65.5" stroke="white" stroke-width="2" stroke-miterlimit="100"/>
<path d="M69 57.1001V58.8999" stroke="white" stroke-width="2" stroke-miterlimit="100"/>
<path fill-rule="evenodd" clip-rule="evenodd" d="M86.7999 46.6001C84.8999 46.6001 83.1999 45.8 81.7999 44.5C80.4999 43.2 79.7999 41.4001 79.7999 39.6001H84.9999C85.4999 39.6001 85.9999 39.7001 86.2999 40.1001C86.5999 40.4001 86.7999 40.7998 86.7999 41.2998V46.6001ZM51.2 41.2998C51.2 40.8998 51.4 40.4001 51.7 40.1001C52 39.8001 52.4999 39.6001 52.9999 39.6001H58.2C58.2 41.4001 57.5 43.2001 56.2 44.6001C54.8 45.9001 53.1 46.6001 51.2 46.6001V41.2998ZM86.7999 62.3999C86.7999 62.7999 86.5999 63.3001 86.2999 63.6001C85.9999 63.9001 85.4999 64.1001 84.9999 64.1001H79.7999C79.7999 62.3001 80.4999 60.5002 81.7999 59.2002C83.1999 57.9002 84.8999 57.1001 86.7999 57.1001V62.3999ZM51.2 57.1001C53.1 57.1001 54.8 57.9002 56.2 59.2002C57.5 60.5002 58.2 62.3002 58.2 64.2002H52.9999C52.4999 64.2002 52 64.0002 51.7 63.7002C51.4 63.3002 51.2 62.8999 51.2 62.3999V57.1001Z" stroke="white" stroke-width="2" stroke-miterlimit="100"/>
<path d="M84.7999 39.6001H53.2C52.1 39.6001 51.2 40.2998 51.2 41.2998V62.3999C51.2 63.2999 52.1 64.1001 53.2 64.1001H84.7999C85.8999 64.1001 86.7999 63.2999 86.7999 62.3999V41.2998C86.7999 40.2998 85.8999 39.6001 84.7999 39.6001Z" stroke="white" stroke-width="2" stroke-miterlimit="100"/>
</svg>
