<svg width="62" height="63" viewBox="0 0 62 63" fill="none" xmlns="http://www.w3.org/2000/svg">
<path d="M31.0999 0.700195C47.7999 0.700195 61.4 14.3 61.4 31V32C61.4 48.7 47.7999 62.2998 31.0999 62.2998C14.2999 62.2998 0.699951 48.7 0.699951 32V31C0.699951 14.3 14.2999 0.700195 31.0999 0.700195Z" fill="#F0F5FF"/>
<path d="M44.0999 44.2998V34.7002C44.0999 30.1002 43.0999 26.5 37.5999 26.5C34.9999 26.5 33.1999 27.8998 32.4999 29.2998H32.3999V26.8999H27.2V44.2998H32.5999V35.7002C32.5999 33.4002 33.0999 31.2002 35.8999 31.2002C38.5999 31.2002 38.7 33.7998 38.7 35.7998V44.2998H44.0999Z" fill="#01538D"/>
<path d="M18.5 26.8999H23.9V44.2998H18.5V26.8999Z" fill="#01538D"/>
<path d="M21.2 18.2002C19.4 18.2002 18 19.5999 18 21.3999C18 23.0999 19.4 24.5 21.2 24.5C22.9 24.5 24.3 23.0999 24.3 21.3999C24.3 19.5999 22.9 18.2002 21.2 18.2002Z" fill="#01538D"/>
</svg>
