<svg width="40" height="40" viewBox="0 0 40 40" fill="none" xmlns="http://www.w3.org/2000/svg">
<path d="M24.9001 26.8999L24.0001 27.8C24.0001 27.8 21.9001 30 16.3001 24C10.7001 18.1 12.7001 15.8999 12.7001 15.8999L13.3001 15.3C14.6001 13.9 14.7001 11.6 13.6001 9.99999L11.2001 6.60009C9.70008 4.50009 6.90008 4.19999 5.20008 5.99999L2.20008 9.10009C1.40008 10.0001 0.800064 11.0999 0.900064 12.3999C1.10006 15.5999 2.40008 22.5001 10.1001 30.6001C18.2001 39.1001 25.8001 39.4001 28.9001 39.1001C29.9001 39.0001 30.8001 38.5 31.5001 37.8L34.2001 34.8999C36.0001 32.9999 35.5001 29.7 33.1001 28.3L29.5001 26.1999C28.0001 25.2999 26.1001 25.5999 24.9001 26.8999Z" fill="white"/>
<path fill-rule="evenodd" clip-rule="evenodd" d="M39.1 10.4999C39.1 12.1999 38.7 13.7999 37.9 15.1999C37.1 16.5999 36 17.7999 34.6 18.6999C33.2 19.4999 31.6 20 30 20.1C28.4 20.2 26.8 19.8 25.3 19.1C25 18.9 24.6 18.8999 24.2 18.9999L22.1 19.4999C21.9 19.5666 21.6667 19.5666 21.4 19.4999C21.2 19.4999 21.0333 19.3999 20.9 19.1999C20.7 19.0666 20.6 18.8999 20.6 18.6999C20.5333 18.4332 20.5333 18.1999 20.6 17.9999L21.1 15.8998C21.2 15.4998 21.2 15.1 21 14.8C20.4 13.5 20 12.0999 20 10.6999C20 9.19988 20.3 7.79993 20.9 6.49993C21.5 5.19993 22.4 4.00003 23.5 3.10003C24.7 2.20003 26 1.59998 27.4 1.29998C28.8 0.899982 30.2 0.899884 31.6 1.19988C33 1.49988 34.4 2.20003 35.5 3.10003C36.6 4.00003 37.5 5.09984 38.1 6.39984C38.8 7.69984 39.1 9.09993 39.1 10.4999ZM27.8 8.19988V8.79998H27.2C26.7 8.79998 26.2 8.89998 25.9 9.29998C25.6 9.59998 25.4 10.0999 25.4 10.4999C25.4 10.9999 25.6 11.5 25.9 11.8C26.2 12.2 26.7 12.3 27.2 12.3H27.8V12.8998C27.8 13.3998 27.9 13.8999 28.3 14.1999C28.6 14.4999 29.1 14.6999 29.6 14.6999C30 14.6999 30.5 14.4999 30.8 14.1999C31.2 13.8999 31.3 13.3998 31.3 12.8998V12.3H31.9C32.4 12.3 32.9 12.2 33.2 11.8C33.5 11.5 33.7 10.9999 33.7 10.4999C33.7 10.0999 33.5 9.59998 33.2 9.29998C32.9 8.89998 32.4 8.79998 31.9 8.79998H31.3V8.19988C31.3 7.19988 30.5 6.39984 29.6 6.39984C28.6 6.39984 27.8 7.19988 27.8 8.19988Z" fill="white"/>
</svg>
