<svg width="16" height="18" viewBox="0 0 16 18" fill="none" xmlns="http://www.w3.org/2000/svg">
<path d="M15.3 10C15.1667 9.86667 14.9667 9.76668 14.7 9.70001C14.5 9.76668 14.3333 9.86667 14.2 10L8.70001 15.4V0.700012C8.70001 0.500012 8.63333 0.333346 8.5 0.200012C8.36667 0.0666789 8.2 0 8 0C7.8 0 7.63333 0.0666789 7.5 0.200012C7.36667 0.333346 7.26668 0.500012 7.20001 0.700012V15.4L1.79999 10C1.66665 9.86667 1.46668 9.76668 1.20001 9.70001C1.00001 9.76668 0.833346 9.86667 0.700012 10C0.566679 10.1333 0.5 10.3 0.5 10.5C0.5 10.7 0.566679 10.8667 0.700012 11L7.5 17.8C7.5 17.8 7.53334 17.8334 7.60001 17.9C7.66667 17.9 7.70001 17.9 7.70001 17.9C7.70001 17.9 7.70001 17.9333 7.70001 18C7.76668 18 7.79999 18 7.79999 18C7.79999 18 7.83333 18 7.89999 18C7.96666 18 8 18 8 18C8 18 8.03334 18 8.10001 18C8.16667 18 8.20001 18 8.20001 18C8.20001 18 8.23332 18 8.29999 18C8.29999 17.9333 8.29999 17.9 8.29999 17.9C8.29999 17.9 8.33333 17.9 8.39999 17.9C8.46666 17.8334 8.5 17.8 8.5 17.8L15.3 11C15.3667 10.9333 15.4 10.8667 15.4 10.8C15.4667 10.6667 15.5 10.5667 15.5 10.5C15.5 10.4333 15.4667 10.3333 15.4 10.2C15.4 10.1333 15.3667 10.0667 15.3 10Z" fill="#9BA4B1"/>
</svg>
