<svg width="137" height="137" viewBox="0 0 137 137" fill="none" xmlns="http://www.w3.org/2000/svg">
<path opacity="0.7" d="M68.9 137C31.2 137 0.800049 106.5 0.800049 68.8999C0.800049 31.1999 31.2 0.799805 68.9 0.799805C106.6 0.799805 137 31.1999 137 68.8999C137 106.5 106.6 137 68.9 137Z" fill="#D8E0EF"/>
<path d="M68.9 126.3C37.1 126.3 11.5 100.6 11.5 68.8999C11.5 37.0999 37.1 11.3999 68.9 11.3999C100.7 11.3999 126.3 37.0999 126.3 68.8999C126.3 100.6 100.7 126.3 68.9 126.3Z" fill="#0E5A91"/>
<path d="M84.4003 55.8999L89.8003 48.2998L75.1002 38L62.6002 55.8999H84.4003ZM60.2002 41L49.7002 55.8999H62.5002L68.9003 47L60.2002 41Z" stroke="white" stroke-width="2" stroke-miterlimit="100"/>
<path d="M92.7001 55.8999H45.1001C43.4001 55.8999 42.1001 57.2999 42.1001 58.8999V88.7002C42.1001 90.3002 43.4001 91.7002 45.1001 91.7002H92.7001C94.4001 91.7002 95.7001 90.3002 95.7001 88.7002V58.8999C95.7001 57.2999 94.4001 55.8999 92.7001 55.8999Z" stroke="white" stroke-width="2" stroke-miterlimit="100"/>
<path d="M84.6001 67.7998H95.7001V79.7998H84.6001C84.3334 79.7998 84.0668 79.7 83.8002 79.5C83.5335 79.3667 83.3001 79.1666 83.1001 78.8999C82.8334 78.6332 82.6668 78.2999 82.6001 77.8999C82.4668 77.5666 82.4001 77.1998 82.4001 76.7998V70.7998C82.4001 69.9998 82.6001 69.3002 83.1001 68.7002C83.5001 68.2002 84.0001 67.7998 84.6001 67.7998Z" stroke="white" stroke-width="2" stroke-miterlimit="100"/>
<path d="M73.9001 66.2998H67.7001C66.7001 66.2998 65.7001 66.6999 65.0001 67.3999C64.3001 68.0999 63.9001 69.1001 63.9001 70.1001C63.9001 71.0001 64.3001 72.0002 65.0001 72.7002C65.7001 73.4002 66.7001 73.7998 67.7001 73.7998H70.1001C71.1001 73.7998 72.1002 74.1999 72.8002 74.8999C73.5002 75.5999 73.9001 76.5 73.9001 77.5C73.9001 78.5 73.5002 79.5002 72.8002 80.2002C72.1002 80.9002 71.1001 81.2998 70.1001 81.2998H63.9001" stroke="white" stroke-width="2" stroke-miterlimit="100"/>
<path d="M68.9001 81.2998V83.7998" stroke="white" stroke-width="2" stroke-miterlimit="100"/>
</svg>
