<svg width="137" height="137" viewBox="0 0 137 137" fill="none" xmlns="http://www.w3.org/2000/svg">
<path opacity="0.7" d="M68.1 137C30.4 137 0 106.5 0 68.8999C0 31.1999 30.4 0.799805 68.1 0.799805C105.8 0.799805 136.2 31.1999 136.2 68.8999C136.2 106.5 105.8 137 68.1 137Z" fill="#D8E0EF"/>
<path d="M68.0999 126.3C36.2999 126.3 10.7 100.6 10.7 68.8999C10.7 37.0999 36.2999 11.3999 68.0999 11.3999C99.8999 11.3999 125.5 37.0999 125.5 68.8999C125.5 100.6 99.8999 126.3 68.0999 126.3Z" fill="#0E5A91"/>
<path d="M51.7999 95H41.9999C41.5333 95 41.1 94.9331 40.7 94.7998C40.3 94.5998 39.9333 94.3333 39.5999 94C39.3333 93.7333 39.0999 93.4 38.8999 93C38.7666 92.6 38.7 92.1669 38.7 91.7002V55.7998" stroke="white" stroke-width="2" stroke-miterlimit="100"/>
<path d="M84.3998 68.8999H64.7998" stroke="white" stroke-width="2" stroke-miterlimit="100"/>
<path d="M84.3998 55.8999H64.7998" stroke="white" stroke-width="2" stroke-miterlimit="100"/>
<path d="M94.1998 42.7002H54.9998C54.5998 42.7002 54.1998 42.8 53.7998 43C53.3998 43.1333 53.0332 43.3669 52.6998 43.7002C52.4332 43.9669 52.1998 44.3002 51.9998 44.7002C51.8665 45.1002 51.7998 45.5333 51.7998 46V78.7002C51.7998 79.1002 51.8665 79.4999 51.9998 79.8999C52.1998 80.2999 52.4332 80.6667 52.6998 81C53.0332 81.2667 53.3998 81.5002 53.7998 81.7002C54.1998 81.8335 54.5998 81.8999 54.9998 81.8999H64.7998V91.7002L81.1998 81.8999H94.1998C95.0998 81.8999 95.8998 81.6 96.5998 81C97.1998 80.4 97.4998 79.5002 97.4998 78.7002V46C97.4998 45.5333 97.4331 45.1002 97.2998 44.7002C97.0998 44.3002 96.8665 43.9669 96.5998 43.7002C96.2665 43.3669 95.8998 43.1333 95.4998 43C95.0998 42.8 94.6665 42.7002 94.1998 42.7002Z" stroke="white" stroke-width="2" stroke-miterlimit="100"/>
</svg>
