<svg width="195" height="68" viewBox="0 0 195 68" fill="none" xmlns="http://www.w3.org/2000/svg">
<g clip-path="url(#clip0_254_31)">
<path d="M8.48177 44.2705C5.21714 45.5249 3.476 41.1614 2.55102 37.7795C0.320198 29.5432 -0.223907 15.2525 0.374608 8.54342C0.429019 7.94342 0.918713 7.50707 1.51723 7.56162C2.11574 7.61616 2.55102 8.16161 2.49662 8.76161C1.73487 18.1433 3.25837 39.3068 6.95827 42.1431C8.6994 43.4523 8.75382 39.9068 15.2831 6.08891C15.3919 5.48891 15.9903 5.10709 16.5345 5.21617C17.133 5.32526 17.5139 5.87071 17.4051 6.47071L13.5964 26.3796C10.4949 42.8523 10.495 43.5067 8.48177 44.2705Z" fill="#1B5586"/>
<path d="M21.7786 19.2887C21.1802 19.1252 20.8537 18.5251 21.0169 17.9797C21.1802 17.4343 21.3434 16.8888 21.4521 16.398C21.8331 14.9797 23.9551 15.5797 23.5741 16.9434L23.0845 18.5797C22.9213 19.1252 22.3228 19.4525 21.7786 19.2887ZM19.0038 36.8523C15.8479 34.9431 18.1876 28.1796 19.5478 23.2161C19.711 22.6161 20.3096 22.2888 20.9081 22.3978C21.4521 22.5615 21.8331 23.1615 21.6698 23.7615C21.1258 25.616 18.4596 33.9614 20.092 34.9431C21.5065 35.7615 24.88 31.8341 27.2197 27.4706C27.5462 26.9796 28.1991 26.7614 28.7431 27.0342C29.2329 27.3069 29.4506 28.016 29.1785 28.5069C27.1653 32.216 22.6492 39.0341 19.0038 36.8523Z" fill="#1B5586"/>
<path d="M28.5194 39.2744C27.9208 39.2744 27.4312 38.838 27.4312 38.238C26.9414 28.42 27.2679 19.3655 28.3561 10.7474L18.7799 11.0201C18.1814 11.0201 17.6916 10.5292 17.6916 9.92917C17.6372 9.32917 18.127 8.83828 18.7254 8.83828L28.6826 8.511C29.0634 5.94739 29.4988 3.43831 29.9885 0.983792C30.1516 0.383799 30.6958 0.00198164 31.2943 0.111074C31.8929 0.220162 32.2736 0.820156 32.1104 1.42015C31.6752 3.71105 31.2398 6.11102 30.8591 8.511L43.2102 8.18374C43.8631 8.18374 44.3528 8.67465 44.3528 9.27463C44.3528 9.87463 43.8631 10.3655 43.2646 10.3655L30.587 10.6928C29.4443 19.2564 29.1178 28.3108 29.6076 38.129C29.6076 38.729 29.1722 39.2744 28.5738 39.2744H28.5194Z" fill="#1B5586"/>
<path d="M33.7142 36.7432C29.9598 34.125 34.6391 22.2888 43.5624 22.2888C44.161 22.2888 44.6506 22.7796 44.6506 23.3797C44.6506 23.9797 44.161 24.4705 43.5624 24.4705C35.1287 24.4705 32.0818 37.9432 36.6523 34.4523C38.8832 32.816 41.0596 28.6705 42.3109 26.1614C42.583 25.616 43.1816 25.3978 43.7256 25.616C44.2698 25.8341 44.5418 26.4341 44.3242 27.0342C43.9433 28.016 43.7256 29.2161 43.5624 30.3615C41.9301 39.8522 47.9152 32.7614 50.7445 27.4706C51.0711 26.9252 51.7239 26.7614 52.2137 27.0342C52.7577 27.3069 52.9754 27.9615 52.7033 28.5069C46.2286 40.4522 40.6787 38.3251 40.9508 32.8705C39.2095 35.4342 36.2714 38.4886 33.7142 36.7432Z" fill="#1B5586"/>
<path d="M51.9359 37.2886C51.3374 37.2886 50.8477 36.7978 50.8477 36.1977V23.1615C50.8477 22.5615 51.3374 22.0706 51.9359 22.0706C52.5343 22.0706 53.0241 22.5615 53.0241 23.1615V29.6523C53.8402 27.7433 54.8196 25.8341 55.9078 24.0343C57.0504 22.0706 58.3563 22.1251 59.0092 22.3434C60.696 22.8342 60.7504 24.5251 60.8591 27.9069C61.7298 25.7797 62.5459 24.7433 63.5253 24.5251C64.0149 24.416 64.5047 24.5251 64.8856 24.7978C66.6811 25.9433 65.865 31.1797 68.4766 31.616C69.1841 31.7251 70.8163 31.2887 73.8633 27.3615C74.2442 26.8706 74.9515 26.816 75.3869 27.1979C75.8765 27.525 75.9853 28.2342 75.6044 28.725C73.8089 30.9614 70.9796 34.1796 68.1503 33.7433C64.5047 33.1978 64.2326 28.4523 63.7974 26.9252C62.6004 28.5069 61.3489 33.1433 61.0224 34.725C60.9135 35.2704 60.4239 35.6523 59.8797 35.5977C59.3357 35.5977 58.9004 35.1069 58.8459 34.5614C58.6284 28.4523 58.6828 25.2887 58.3563 24.416C57.5946 24.907 54.4932 30.7432 52.9697 36.4705C52.8608 36.9613 52.4256 37.2886 51.9359 37.2886Z" fill="#1B5586"/>
<path d="M77.2513 19.2887C76.6529 19.1252 76.3264 18.5251 76.4896 17.9797C76.6529 17.4343 76.816 16.8888 76.9248 16.398C77.3058 14.9797 79.4278 15.5797 79.0468 16.9434L78.5572 18.5797C78.394 19.1252 77.7954 19.4525 77.2513 19.2887ZM74.4765 36.8523C71.3206 34.9431 73.6602 28.1796 75.0205 23.2161C75.1837 22.6161 75.7822 22.2888 76.3808 22.3978C76.9248 22.5615 77.3058 23.1615 77.1425 23.7615C76.5985 25.616 73.9323 33.9614 75.5647 34.9431C76.9792 35.7615 80.3527 31.8341 82.6924 27.4706C83.0188 26.9796 83.6718 26.7614 84.2158 27.0342C84.7056 27.3069 84.9233 28.016 84.6512 28.5069C82.638 32.216 78.1219 39.0341 74.4765 36.8523Z" fill="#1B5586"/>
<path d="M83.0124 37.1796C82.4684 37.0705 82.0875 36.5796 82.1419 36.0342C82.3596 32.5433 82.6861 27.3615 83.2845 23.1615C83.3389 22.5615 83.883 22.1251 84.4816 22.2342C85.08 22.2888 85.5154 22.8888 85.4065 23.4888C85.1889 25.016 85.0256 26.816 84.8079 28.9432C86.3315 25.4524 87.5285 22.5069 89.8682 22.6161C90.9565 22.6707 91.9358 23.3797 92.4254 24.5251C93.5137 27.0342 91.9903 30.4159 93.8402 31.5614C95.7989 32.816 98.9003 29.5432 100.152 27.416C100.424 26.8706 101.077 26.7069 101.621 27.0342C102.111 27.3069 102.328 27.9615 102.002 28.5069C100.097 31.8341 95.9622 35.4886 92.6431 33.416C89.5417 31.4524 91.2828 27.3069 90.4123 25.3978C89.3241 22.8342 86.658 29.8159 84.2095 36.4705C84.0462 37.0159 83.5022 37.2886 83.0124 37.1796Z" fill="#1B5586"/>
<path d="M108.269 44.434C104.243 43.834 101.413 40.3977 103.372 36.3613C104.841 33.3614 108.16 31.0705 111.261 29.7069C109.684 27.3615 107.616 25.2887 105.82 22.9978C102.121 18.307 100.434 12.0343 104.569 7.72525C109.303 2.87075 117.083 6.0889 118.389 12.8525C118.498 13.4525 118.117 13.9979 117.519 14.1616C116.92 14.2706 116.376 13.8888 116.213 13.2888C115.288 8.32524 109.684 5.598 106.147 9.2525C102.773 12.7434 104.623 17.9797 107.562 21.6342C109.412 23.9797 111.642 26.2706 113.329 28.9432C115.941 28.125 119.314 27.5796 123.395 27.9069C123.994 27.9615 124.429 28.5069 124.374 29.1069C124.32 29.7069 123.83 30.1432 123.232 30.0886C119.695 29.8159 116.703 30.2524 114.417 30.9069C117.845 38.1068 115.288 45.4159 108.269 44.434ZM111.642 41.7613C114.744 39.9614 113.928 34.8342 112.35 31.616C109.684 32.7068 106.637 34.725 105.331 37.3432C103.426 41.2158 108.704 43.3977 111.642 41.7613Z" fill="#1B5586"/>
<path d="M128.833 37.1796C117.134 37.1796 124.752 20.4888 130.955 22.3434C132.424 22.8342 133.403 24.4705 132.75 25.8887C132.478 26.4887 131.88 26.7069 131.281 26.4887C130.737 26.216 130.519 25.5614 130.737 25.016C130.737 25.016 130.791 24.9614 130.737 24.8524C129.649 22.5069 123.881 28.6705 125.024 32.925C125.84 35.8705 133.077 37.2341 138.953 27.3615C139.279 26.8706 139.932 26.7069 140.422 26.9796C140.966 27.3069 141.129 27.9615 140.803 28.5069C136.776 35.2159 132.315 37.1796 128.833 37.1796Z" fill="#1B5586"/>
<path d="M139.502 36.7978C138.904 36.7432 138.414 36.2523 138.414 35.7069C138.468 31.4524 139.067 27.1979 139.121 23.0524C139.121 22.4524 139.611 21.9615 140.21 21.9615C140.808 21.9615 141.298 22.4524 141.298 23.0524C141.298 24.6887 141.189 26.3796 141.08 27.9615C142.876 25.016 146.412 21.1433 149.786 21.9069C150.384 22.0161 150.765 22.6161 150.602 23.2161C150.493 23.8159 149.895 24.1432 149.35 24.0342C146.521 23.4342 140.917 29.9251 140.59 35.7615C140.59 36.3069 140.101 36.7978 139.502 36.7978Z" fill="#1B5586"/>
<path d="M154.986 19.2887C154.387 19.1252 154.061 18.5251 154.224 17.9797C154.387 17.4343 154.55 16.8888 154.659 16.398C155.04 14.9797 157.162 15.5797 156.782 16.9434L156.292 18.5797C156.128 19.1252 155.53 19.4525 154.986 19.2887ZM152.211 36.8523C149.055 34.9431 151.395 28.1796 152.755 23.2161C152.918 22.6161 153.517 22.2888 154.115 22.3978C154.659 22.5615 155.04 23.1615 154.877 23.7615C154.333 25.616 151.667 33.9614 153.299 34.9431C154.714 35.7615 158.087 31.8341 160.427 27.4706C160.753 26.9796 161.406 26.7614 161.95 27.0342C162.439 27.3069 162.658 28.016 162.386 28.5069C160.372 32.216 155.856 39.0341 152.211 36.8523Z" fill="#1B5586"/>
<path d="M162.391 49.1503C161.792 49.1503 161.302 48.7139 161.302 48.1139C161.193 38.4048 161.357 39.7433 161.737 29.7069L161.574 29.9797C161.248 30.4705 160.541 30.5797 160.051 30.2524C159.562 29.9251 159.398 29.2705 159.725 28.7251C160.323 27.9069 161.03 27.0342 161.847 26.2706C161.956 24.4705 162.009 22.6707 162.119 20.8706C162.173 20.2706 162.663 19.7798 163.262 19.8342C163.859 19.8342 164.295 20.3798 164.295 20.9796L164.131 24.416C165.709 23.3797 167.668 22.4524 169.518 22.2342C176.918 21.3615 175.123 31.1797 168.539 35.7069C167.069 36.6886 165.384 37.3978 163.642 37.1251C163.479 44.5432 163.37 40.7503 163.479 48.0593C163.479 48.6593 162.99 49.1503 162.391 49.1503ZM163.696 34.8887C167.886 35.9796 174.089 26.9796 171.695 24.7433C170.552 23.707 166.962 24.7433 163.969 27.2523C163.859 29.8159 163.806 32.3795 163.696 34.8887Z" fill="#1B5586"/>
<path d="M179.156 37.5068C178.558 37.5068 178.067 37.0705 178.067 36.4705C177.578 26.6524 177.905 19.3655 178.993 10.7474L169.417 11.0201C168.818 11.0201 168.328 10.5292 168.328 9.92917C168.274 9.32917 168.763 8.83828 169.362 8.83828L179.32 8.511C179.7 5.94739 180.136 3.43831 180.626 0.983792C180.788 0.383799 181.333 0.00198164 181.932 0.111074C182.53 0.220162 182.91 0.820156 182.748 1.42015C182.311 3.71105 181.877 6.11102 181.495 8.511L193.847 8.18374C194.499 8.18374 194.99 8.67465 194.99 9.27463C194.99 9.87463 194.499 10.3655 193.902 10.3655L181.223 10.6928C180.082 19.2564 179.755 26.5433 180.244 36.3613C180.244 36.9613 179.809 37.5068 179.211 37.5068H179.156Z" fill="#1B5586"/>
<path d="M8.48177 44.2705C5.21714 45.5249 3.476 41.1614 2.55102 37.7795C0.320198 29.5432 -0.223907 15.2525 0.374608 8.54342C0.429019 7.94342 0.918713 7.50707 1.51723 7.56162C2.11574 7.61616 2.55102 8.16161 2.49662 8.76161C1.73487 18.1433 3.25837 39.3068 6.95827 42.1431C8.6994 43.4523 8.75382 39.9068 15.2831 6.08891C15.3919 5.48891 15.9903 5.10709 16.5345 5.21617C17.133 5.32526 17.5139 5.87071 17.4051 6.47071L13.5964 26.3796C10.4949 42.8523 10.495 43.5067 8.48177 44.2705Z" stroke="#1B5586"/>
<path d="M21.7786 19.2887C21.1802 19.1252 20.8537 18.5251 21.0169 17.9797C21.1802 17.4343 21.3434 16.8888 21.4521 16.398C21.8331 14.9797 23.9551 15.5797 23.5741 16.9434L23.0845 18.5797C22.9213 19.1252 22.3228 19.4525 21.7786 19.2887ZM19.0038 36.8523C15.8479 34.9431 18.1876 28.1796 19.5478 23.2161C19.711 22.6161 20.3096 22.2888 20.9081 22.3978C21.4521 22.5615 21.8331 23.1615 21.6698 23.7615C21.1258 25.616 18.4596 33.9614 20.092 34.9431C21.5065 35.7615 24.88 31.8341 27.2197 27.4706C27.5462 26.9796 28.1991 26.7614 28.7431 27.0342C29.2329 27.3069 29.4506 28.016 29.1785 28.5069C27.1653 32.216 22.6492 39.0341 19.0038 36.8523Z" stroke="#1B5586"/>
<path d="M28.5194 39.2744C27.9208 39.2744 27.4312 38.838 27.4312 38.238C26.9414 28.42 27.2679 19.3655 28.3561 10.7474L18.7799 11.0201C18.1814 11.0201 17.6916 10.5292 17.6916 9.92917C17.6372 9.32917 18.127 8.83828 18.7254 8.83828L28.6826 8.511C29.0634 5.94739 29.4988 3.43831 29.9885 0.983792C30.1516 0.383799 30.6958 0.00198164 31.2943 0.111074C31.8929 0.220162 32.2736 0.820156 32.1104 1.42015C31.6752 3.71105 31.2398 6.11102 30.8591 8.511L43.2102 8.18374C43.8631 8.18374 44.3528 8.67465 44.3528 9.27463C44.3528 9.87463 43.8631 10.3655 43.2646 10.3655L30.587 10.6928C29.4443 19.2564 29.1178 28.3108 29.6076 38.129C29.6076 38.729 29.1722 39.2744 28.5738 39.2744H28.5194Z" stroke="#1B5586"/>
<path d="M33.7142 36.7432C29.9598 34.125 34.6391 22.2888 43.5624 22.2888C44.161 22.2888 44.6506 22.7796 44.6506 23.3797C44.6506 23.9797 44.161 24.4705 43.5624 24.4705C35.1287 24.4705 32.0818 37.9432 36.6523 34.4523C38.8832 32.816 41.0596 28.6705 42.3109 26.1614C42.583 25.616 43.1816 25.3978 43.7256 25.616C44.2698 25.8341 44.5418 26.4341 44.3242 27.0342C43.9433 28.016 43.7256 29.2161 43.5624 30.3615C41.9301 39.8522 47.9152 32.7614 50.7445 27.4706C51.0711 26.9252 51.7239 26.7614 52.2137 27.0342C52.7577 27.3069 52.9754 27.9615 52.7033 28.5069C46.2286 40.4522 40.6787 38.3251 40.9508 32.8705C39.2095 35.4342 36.2714 38.4886 33.7142 36.7432Z" stroke="#1B5586"/>
<path d="M51.9359 37.2886C51.3374 37.2886 50.8477 36.7978 50.8477 36.1977V23.1615C50.8477 22.5615 51.3374 22.0706 51.9359 22.0706C52.5343 22.0706 53.0241 22.5615 53.0241 23.1615V29.6523C53.8402 27.7433 54.8196 25.8341 55.9078 24.0343C57.0504 22.0706 58.3563 22.1251 59.0092 22.3434C60.696 22.8342 60.7504 24.5251 60.8591 27.9069C61.7298 25.7797 62.5459 24.7433 63.5253 24.5251C64.0149 24.416 64.5047 24.5251 64.8856 24.7978C66.6811 25.9433 65.865 31.1797 68.4766 31.616C69.1841 31.7251 70.8163 31.2887 73.8633 27.3615C74.2442 26.8706 74.9515 26.816 75.3869 27.1979C75.8765 27.525 75.9853 28.2342 75.6044 28.725C73.8089 30.9614 70.9796 34.1796 68.1503 33.7433C64.5047 33.1978 64.2326 28.4523 63.7974 26.9252C62.6004 28.5069 61.3489 33.1433 61.0224 34.725C60.9135 35.2704 60.4239 35.6523 59.8797 35.5977C59.3357 35.5977 58.9004 35.1069 58.8459 34.5614C58.6284 28.4523 58.6828 25.2887 58.3563 24.416C57.5946 24.907 54.4932 30.7432 52.9697 36.4705C52.8608 36.9613 52.4256 37.2886 51.9359 37.2886Z" stroke="#1B5586"/>
<path d="M77.2513 19.2887C76.6529 19.1252 76.3264 18.5251 76.4896 17.9797C76.6529 17.4343 76.816 16.8888 76.9248 16.398C77.3058 14.9797 79.4278 15.5797 79.0468 16.9434L78.5572 18.5797C78.394 19.1252 77.7954 19.4525 77.2513 19.2887ZM74.4765 36.8523C71.3206 34.9431 73.6602 28.1796 75.0205 23.2161C75.1837 22.6161 75.7822 22.2888 76.3808 22.3978C76.9248 22.5615 77.3058 23.1615 77.1425 23.7615C76.5985 25.616 73.9323 33.9614 75.5647 34.9431C76.9792 35.7615 80.3527 31.8341 82.6924 27.4706C83.0188 26.9796 83.6718 26.7614 84.2158 27.0342C84.7056 27.3069 84.9233 28.016 84.6512 28.5069C82.638 32.216 78.1219 39.0341 74.4765 36.8523Z" stroke="#1B5586"/>
<path d="M83.0124 37.1796C82.4684 37.0705 82.0875 36.5796 82.1419 36.0342C82.3596 32.5433 82.6861 27.3615 83.2845 23.1615C83.3389 22.5615 83.883 22.1251 84.4816 22.2342C85.08 22.2888 85.5154 22.8888 85.4065 23.4888C85.1889 25.016 85.0256 26.816 84.8079 28.9432C86.3315 25.4524 87.5285 22.5069 89.8682 22.6161C90.9565 22.6707 91.9358 23.3797 92.4254 24.5251C93.5137 27.0342 91.9903 30.4159 93.8402 31.5614C95.7989 32.816 98.9003 29.5432 100.152 27.416C100.424 26.8706 101.077 26.7069 101.621 27.0342C102.111 27.3069 102.328 27.9615 102.002 28.5069C100.097 31.8341 95.9622 35.4886 92.6431 33.416C89.5417 31.4524 91.2828 27.3069 90.4123 25.3978C89.3241 22.8342 86.658 29.8159 84.2095 36.4705C84.0462 37.0159 83.5022 37.2886 83.0124 37.1796Z" stroke="#1B5586"/>
<path d="M108.269 44.434C104.243 43.834 101.413 40.3977 103.372 36.3613C104.841 33.3614 108.16 31.0705 111.261 29.7069C109.684 27.3615 107.616 25.2887 105.82 22.9978C102.121 18.307 100.434 12.0343 104.569 7.72525C109.303 2.87075 117.083 6.0889 118.389 12.8525C118.498 13.4525 118.117 13.9979 117.519 14.1616C116.92 14.2706 116.376 13.8888 116.213 13.2888C115.288 8.32524 109.684 5.598 106.147 9.2525C102.773 12.7434 104.623 17.9797 107.562 21.6342C109.412 23.9797 111.642 26.2706 113.329 28.9432C115.941 28.125 119.314 27.5796 123.395 27.9069C123.994 27.9615 124.429 28.5069 124.374 29.1069C124.32 29.7069 123.83 30.1432 123.232 30.0886C119.695 29.8159 116.703 30.2524 114.417 30.9069C117.845 38.1068 115.288 45.4159 108.269 44.434ZM111.642 41.7613C114.744 39.9614 113.928 34.8342 112.35 31.616C109.684 32.7068 106.637 34.725 105.331 37.3432C103.426 41.2158 108.704 43.3977 111.642 41.7613Z" stroke="#1B5586"/>
<path d="M128.833 37.1796C117.134 37.1796 124.752 20.4888 130.955 22.3434C132.424 22.8342 133.403 24.4705 132.75 25.8887C132.478 26.4887 131.88 26.7069 131.281 26.4887C130.737 26.216 130.519 25.5614 130.737 25.016C130.737 25.016 130.791 24.9614 130.737 24.8524C129.649 22.5069 123.881 28.6705 125.024 32.925C125.84 35.8705 133.077 37.2341 138.953 27.3615C139.279 26.8706 139.932 26.7069 140.422 26.9796C140.966 27.3069 141.129 27.9615 140.803 28.5069C136.776 35.2159 132.315 37.1796 128.833 37.1796Z" stroke="#1B5586"/>
<path d="M139.502 36.7978C138.904 36.7432 138.414 36.2523 138.414 35.7069C138.468 31.4524 139.067 27.1979 139.121 23.0524C139.121 22.4524 139.611 21.9615 140.21 21.9615C140.808 21.9615 141.298 22.4524 141.298 23.0524C141.298 24.6887 141.189 26.3796 141.08 27.9615C142.876 25.016 146.412 21.1433 149.786 21.9069C150.384 22.0161 150.765 22.6161 150.602 23.2161C150.493 23.8159 149.895 24.1432 149.35 24.0342C146.521 23.4342 140.917 29.9251 140.59 35.7615C140.59 36.3069 140.101 36.7978 139.502 36.7978Z" stroke="#1B5586"/>
<path d="M154.986 19.2887C154.387 19.1252 154.061 18.5251 154.224 17.9797C154.387 17.4343 154.55 16.8888 154.659 16.398C155.04 14.9797 157.162 15.5797 156.782 16.9434L156.292 18.5797C156.128 19.1252 155.53 19.4525 154.986 19.2887ZM152.211 36.8523C149.055 34.9431 151.395 28.1796 152.755 23.2161C152.918 22.6161 153.517 22.2888 154.115 22.3978C154.659 22.5615 155.04 23.1615 154.877 23.7615C154.333 25.616 151.667 33.9614 153.299 34.9431C154.714 35.7615 158.087 31.8341 160.427 27.4706C160.753 26.9796 161.406 26.7614 161.95 27.0342C162.439 27.3069 162.658 28.016 162.386 28.5069C160.372 32.216 155.856 39.0341 152.211 36.8523Z" stroke="#1B5586"/>
<path d="M162.391 49.1503C161.792 49.1503 161.302 48.7139 161.302 48.1139C161.193 38.4048 161.357 39.7433 161.737 29.7069L161.574 29.9797C161.248 30.4705 160.541 30.5797 160.051 30.2524C159.562 29.9251 159.398 29.2705 159.725 28.7251C160.323 27.9069 161.03 27.0342 161.847 26.2706C161.956 24.4705 162.009 22.6707 162.119 20.8706C162.173 20.2706 162.663 19.7798 163.262 19.8342C163.859 19.8342 164.295 20.3798 164.295 20.9796L164.131 24.416C165.709 23.3797 167.668 22.4524 169.518 22.2342C176.918 21.3615 175.123 31.1797 168.539 35.7069C167.069 36.6886 165.384 37.3978 163.642 37.1251C163.479 44.5432 163.37 40.7503 163.479 48.0593C163.479 48.6593 162.99 49.1503 162.391 49.1503ZM163.696 34.8887C167.886 35.9796 174.089 26.9796 171.695 24.7433C170.552 23.707 166.962 24.7433 163.969 27.2523C163.859 29.8159 163.806 32.3795 163.696 34.8887Z" stroke="#1B5586"/>
<path d="M179.156 37.5068C178.558 37.5068 178.067 37.0705 178.067 36.4705C177.578 26.6524 177.905 19.3655 178.993 10.7474L169.417 11.0201C168.818 11.0201 168.328 10.5292 168.328 9.92917C168.274 9.32917 168.763 8.83828 169.362 8.83828L179.32 8.511C179.7 5.94739 180.136 3.43831 180.626 0.983792C180.788 0.383799 181.333 0.00198164 181.932 0.111074C182.53 0.220162 182.91 0.820156 182.748 1.42015C182.311 3.71105 181.877 6.11102 181.495 8.511L193.847 8.18374C194.499 8.18374 194.99 8.67465 194.99 9.27463C194.99 9.87463 194.499 10.3655 193.902 10.3655L181.223 10.6928C180.082 19.2564 179.755 26.5433 180.244 36.3613C180.244 36.9613 179.809 37.5068 179.211 37.5068H179.156Z" stroke="#1B5586"/>
<path d="M32.2917 50.1289V57.1128H30.9947V54.1198H27.3829V57.1128H26.0859V50.1289H27.3829V53.0123H30.9947V50.1289H32.2917ZM37.4256 57.2127C36.714 57.2127 36.0721 57.0596 35.5 56.7538C34.928 56.441 34.4791 56.0121 34.1532 55.4666C33.8271 54.9146 33.6642 54.2993 33.6642 53.6209C33.6642 52.9424 33.8271 52.3305 34.1532 51.7851C34.4791 51.2331 34.928 50.804 35.5 50.498C36.0721 50.1854 36.714 50.0291 37.4256 50.0291C38.1373 50.0291 38.7792 50.1854 39.3513 50.498C39.9233 50.804 40.3722 51.2296 40.6981 51.7751C41.024 52.3205 41.1869 52.9358 41.1869 53.6209C41.1869 54.306 41.024 54.9212 40.6981 55.4666C40.3722 56.0121 39.9233 56.441 39.3513 56.7538C38.7792 57.0596 38.1373 57.2127 37.4256 57.2127ZM37.4256 56.0752C37.8912 56.0752 38.3103 55.9722 38.6828 55.7659C39.0552 55.5531 39.348 55.2605 39.5608 54.888C39.7736 54.5088 39.88 54.0865 39.88 53.6209C39.88 53.1552 39.7736 52.7362 39.5608 52.3638C39.348 51.9846 39.0552 51.6919 38.6828 51.4858C38.3103 51.273 37.8912 51.1665 37.4256 51.1665C36.96 51.1665 36.541 51.273 36.1685 51.4858C35.7961 51.6919 35.5033 51.9846 35.2905 52.3638C35.0777 52.7362 34.9712 53.1552 34.9712 53.6209C34.9712 54.0865 35.0777 54.5088 35.2905 54.888C35.5033 55.2605 35.7961 55.5531 36.1685 55.7659C36.541 55.9722 36.96 56.0752 37.4256 56.0752ZM42.5618 50.1289H43.8589V56.0153H47.5104V57.1128H42.5618V50.1289ZM48.5344 50.1289H49.8315V57.1128H48.5344V50.1289ZM53.8856 57.2127C53.3468 57.2127 52.8247 57.1361 52.3191 56.9832C51.8203 56.8302 51.4245 56.6272 51.1319 56.3745L51.5809 55.3669C51.8669 55.593 52.2161 55.7792 52.6285 55.9256C53.0475 56.0652 53.4665 56.1351 53.8856 56.1351C54.4044 56.1351 54.7902 56.0519 55.0429 55.8857C55.3023 55.7193 55.4319 55.4999 55.4319 55.2272C55.4319 55.0277 55.3588 54.8647 55.2126 54.7384C55.0728 54.6053 54.8932 54.5023 54.6737 54.4291C54.4543 54.3559 54.155 54.2727 53.7758 54.1797C53.2436 54.0531 52.8114 53.9268 52.4788 53.8004C52.1529 53.6741 51.8702 53.4778 51.6308 53.2119C51.3979 52.9391 51.2816 52.5732 51.2816 52.1143C51.2816 51.7285 51.3846 51.3793 51.5907 51.0667C51.8037 50.7475 52.1196 50.4947 52.5387 50.3084C52.9644 50.1222 53.4832 50.0291 54.0951 50.0291C54.5208 50.0291 54.9398 50.0823 55.3522 50.1888C55.7646 50.2951 56.1205 50.4481 56.4198 50.6478L56.0107 51.6554C55.7047 51.4758 55.3855 51.3394 55.0529 51.2464C54.7203 51.1532 54.3977 51.1066 54.0851 51.1066C53.573 51.1066 53.1905 51.193 52.9378 51.366C52.6916 51.5389 52.5686 51.7685 52.5686 52.0545C52.5686 52.2541 52.6385 52.417 52.7781 52.5433C52.9245 52.6697 53.1073 52.7695 53.3268 52.8426C53.5464 52.9158 53.8457 52.999 54.2247 53.0921C54.7436 53.2119 55.1692 53.3382 55.5018 53.4713C55.8345 53.5976 56.117 53.7939 56.3499 54.0599C56.5893 54.3259 56.7091 54.6851 56.7091 55.1375C56.7091 55.5232 56.6027 55.8724 56.3897 56.185C56.1836 56.4976 55.8676 56.747 55.442 56.9333C55.0163 57.1195 54.4975 57.2127 53.8856 57.2127ZM59.3144 51.2264H56.9998V50.1289H62.9262V51.2264H60.6116V57.1128H59.3144V51.2264ZM63.8997 50.1289H65.1966V57.1128H63.8997V50.1289ZM70.3183 57.2127C69.6132 57.2127 68.9747 57.0596 68.4027 56.7538C67.8374 56.441 67.3917 56.0121 67.0658 55.4666C66.7465 54.9212 66.5868 54.306 66.5868 53.6209C66.5868 52.9358 66.7498 52.3205 67.0757 51.7751C67.4017 51.2296 67.8472 50.804 68.4127 50.498C68.9847 50.1854 69.6232 50.0291 70.3283 50.0291C70.9003 50.0291 71.4224 50.1289 71.8947 50.3284C72.3669 50.528 72.766 50.8173 73.0919 51.1965L72.2539 51.9846C71.7483 51.4392 71.1264 51.1665 70.3882 51.1665C69.9092 51.1665 69.4802 51.273 69.101 51.4858C68.722 51.6919 68.426 51.9813 68.2131 52.3538C68.0003 52.7263 67.8938 53.1487 67.8938 53.6209C67.8938 54.0932 68.0003 54.5156 68.2131 54.888C68.426 55.2605 68.722 55.5531 69.101 55.7659C69.4802 55.9722 69.9092 56.0752 70.3882 56.0752C71.1264 56.0752 71.7483 55.7992 72.2539 55.2471L73.0919 56.0454C72.766 56.4244 72.3636 56.7137 71.8847 56.9133C71.4124 57.1128 70.8903 57.2127 70.3183 57.2127ZM83.2979 50.1289V57.1128H82.0007V54.1198H78.3891V57.1128H77.092V50.1289H78.3891V53.0123H82.0007V50.1289H83.2979ZM90.4072 56.0254V57.1128H85.1692V50.1289H90.2675V51.2163H86.4662V53.0322H89.8386V54.0998H86.4662V56.0254H90.4072ZM96.3827 55.4965H92.8907L92.2024 57.1128H90.8653L94.0082 50.1289H95.2853L98.438 57.1128H97.0811L96.3827 55.4965ZM95.9538 54.479L94.6368 51.4259L93.3297 54.479H95.9538ZM99.3262 50.1289H100.623V56.0153H104.275V57.1128H99.3262V50.1289ZM106.063 51.2264H103.748V50.1289H109.674V51.2264H107.36V57.1128H106.063V51.2264ZM116.854 50.1289V57.1128H115.557V54.1198H111.945V57.1128H110.648V50.1289H111.945V53.0123H115.557V50.1289H116.854ZM124.356 50.1289C124.961 50.1289 125.487 50.2287 125.932 50.4282C126.385 50.6277 126.73 50.9138 126.97 51.2862C127.209 51.6587 127.329 52.101 127.329 52.6132C127.329 53.1187 127.209 53.561 126.97 53.9401C126.73 54.3126 126.385 54.5986 125.932 54.7981C125.487 54.9977 124.961 55.0974 124.356 55.0974H122.78V57.1128H121.483V50.1289H124.356ZM124.296 54C124.861 54 125.29 53.8802 125.583 53.6408C125.876 53.4014 126.022 53.0588 126.022 52.6132C126.022 52.1676 125.876 51.825 125.583 51.5855C125.29 51.3461 124.861 51.2264 124.296 51.2264H122.78V54H124.296ZM132.803 55.4965H129.311L128.623 57.1128H127.286L130.429 50.1289H131.706L134.858 57.1128H133.502L132.803 55.4965ZM132.374 54.479L131.057 51.4259L129.75 54.479H132.374ZM140.316 57.1128L138.889 55.0676C138.83 55.0743 138.74 55.0776 138.62 55.0776H137.044V57.1128H135.747V50.1289H138.62C139.225 50.1289 139.751 50.2287 140.196 50.4282C140.649 50.6277 140.995 50.9138 141.234 51.2862C141.474 51.6587 141.593 52.101 141.593 52.6132C141.593 53.1387 141.464 53.5909 141.204 53.9701C140.951 54.3492 140.585 54.6319 140.107 54.8181L141.713 57.1128H140.316ZM140.286 52.6132C140.286 52.1676 140.14 51.825 139.847 51.5855C139.555 51.3461 139.126 51.2264 138.56 51.2264H137.044V54.01H138.56C139.126 54.01 139.555 53.8902 139.847 53.6508C140.14 53.4047 140.286 53.0588 140.286 52.6132ZM144.364 51.2264H142.049V50.1289H147.975V51.2264H145.661V57.1128H144.364V51.2264ZM155.155 50.1289V57.1128H154.087L150.236 52.3837V57.1128H148.949V50.1289H150.016L153.868 54.858V50.1289H155.155ZM162.264 56.0254V57.1128H157.026V50.1289H162.125V51.2163H158.323V53.0322H161.695V54.0998H158.323V56.0254H162.264ZM168.28 57.1128L166.852 55.0676C166.793 55.0743 166.704 55.0776 166.583 55.0776H165.007V57.1128H163.711V50.1289H166.583C167.188 50.1289 167.714 50.2287 168.159 50.4282C168.611 50.6277 168.959 50.9138 169.198 51.2862C169.437 51.6587 169.556 52.101 169.556 52.6132C169.556 53.1387 169.426 53.5909 169.168 53.9701C168.915 54.3492 168.549 54.6319 168.07 54.8181L169.676 57.1128H168.28ZM168.25 52.6132C168.25 52.1676 168.103 51.825 167.811 51.5855C167.518 51.3461 167.088 51.2264 166.524 51.2264H165.007V54.01H166.524C167.088 54.01 167.518 53.8902 167.811 53.6508C168.103 53.4047 168.25 53.0588 168.25 52.6132ZM173.173 57.2127C172.633 57.2127 172.111 57.1361 171.606 56.9832C171.107 56.8302 170.712 56.6272 170.419 56.3745L170.868 55.3669C171.154 55.593 171.503 55.7792 171.916 55.9256C172.335 56.0652 172.754 56.1351 173.173 56.1351C173.692 56.1351 174.077 56.0519 174.33 55.8857C174.59 55.7193 174.719 55.4999 174.719 55.2272C174.719 55.0277 174.646 54.8647 174.499 54.7384C174.36 54.6053 174.18 54.5023 173.961 54.4291C173.742 54.3559 173.442 54.2727 173.063 54.1797C172.53 54.0531 172.099 53.9268 171.765 53.8004C171.44 53.6741 171.157 53.4778 170.918 53.2119C170.685 52.9391 170.569 52.5732 170.569 52.1143C170.569 51.7285 170.672 51.3793 170.877 51.0667C171.091 50.7475 171.407 50.4947 171.826 50.3084C172.252 50.1222 172.771 50.0291 173.382 50.0291C173.808 50.0291 174.227 50.0823 174.64 50.1888C175.051 50.2951 175.407 50.4481 175.706 50.6478L175.298 51.6554C174.991 51.4758 174.672 51.3394 174.339 51.2464C174.008 51.1532 173.684 51.1066 173.371 51.1066C172.86 51.1066 172.477 51.193 172.225 51.366C171.978 51.5389 171.856 51.7685 171.856 52.0545C171.856 52.2541 171.925 52.417 172.066 52.5433C172.211 52.6697 172.394 52.7695 172.615 52.8426C172.834 52.9158 173.132 52.999 173.512 53.0921C174.031 53.2119 174.457 53.3382 174.788 53.4713C175.121 53.5976 175.404 53.7939 175.637 54.0599C175.877 54.3259 175.995 54.6851 175.995 55.1375C175.995 55.5232 175.889 55.8724 175.676 56.185C175.47 56.4976 175.154 56.747 174.729 56.9333C174.303 57.1195 173.784 57.2127 173.173 57.2127Z" fill="#1B5586"/>
<path d="M8.49716 58.1535C8.27557 58.1535 8.09429 57.9924 8.09429 57.7708C7.99356 54.8097 8.27557 51.9693 8.85976 49.5319C9.34321 47.5175 10.008 45.8858 10.5921 45.2614C11.3173 44.516 12.9087 44.8183 11.3979 49.0082C11.0152 50.0959 10.5116 51.1435 9.94754 52.0498C11.8008 50.5996 13.6339 51.0226 13.1101 53.2183C13.8353 53.0169 14.5605 52.9162 15.2051 52.9162C15.4267 52.9162 15.608 53.0974 15.608 53.319C15.608 53.5406 15.4267 53.7218 15.2051 53.7218C14.4598 53.7218 13.6339 53.883 12.808 54.165C12.6871 54.4269 12.5663 54.7088 12.4051 55.0111C11.8008 56.1794 10.8137 56.8845 10.0885 57.0657C8.61802 57.4485 7.93313 55.1924 12.1835 53.5406C12.3044 53.1779 12.5461 52.3923 12.2842 52.1104C11.8008 51.5665 9.12163 53.0772 8.92018 55.1924C8.8799 56.0385 8.8799 56.8845 8.90004 57.7305C8.90004 57.9521 8.7389 58.1535 8.51731 58.1535H8.49716ZM9.26263 51.6067C10.6727 49.3305 11.4382 46.5909 11.1965 45.8053C10.572 46.4297 9.7058 48.847 9.26263 51.6067ZM9.76624 56.3205C10.1288 56.2801 11.1159 55.7766 11.7001 54.6283C10.1288 55.4139 9.66551 56.1996 9.76624 56.3205ZM18.1458 63.5724C16.1315 67.8226 12.0623 64.7406 18.6898 57.9924C18.871 56.5622 18.9516 55.0715 18.9516 53.7218C16.9371 57.9924 13.0897 57.0859 15.6682 51.7881C15.7487 51.5867 15.9904 51.506 16.1919 51.6067C16.3933 51.7075 16.474 51.9491 16.3933 52.1507C15.4868 54.0241 15.2652 55.7968 16.212 55.5953C17.1789 55.3738 18.3473 53.7218 18.8912 51.506C18.9314 51.3046 19.1128 51.1837 19.3142 51.2039C19.4954 51.2039 19.6567 51.3651 19.6768 51.5665C19.7977 52.896 19.7977 54.9506 19.5961 57.1061C20.8855 55.8571 22.1948 54.5478 23.1617 53.0571C23.2825 52.8758 23.5445 52.8355 23.7257 52.9563C23.9069 53.0772 23.9675 53.319 23.8466 53.5002C22.638 55.3536 20.966 56.8643 19.4552 58.3751C19.2537 60.0068 18.8509 62.0816 18.1458 63.5724ZM15.9299 64.6399C16.0508 64.9019 17.6221 64.5996 18.4882 59.4025C17.3401 60.7118 16.7156 61.7795 16.3731 62.5046C15.789 63.7334 15.8092 64.4184 15.9299 64.6399Z" fill="#1B5586"/>
</g>
<defs>
<clipPath id="clip0_254_31">
<rect width="195" height="67.8669" fill="white"/>
</clipPath>
</defs>
</svg>
