<svg width="290" height="101" viewBox="0 0 290 101" fill="none" xmlns="http://www.w3.org/2000/svg">
<g clip-path="url(#clip0_254_2)">
<path d="M12.6119 65.8381C7.75682 67.7037 5.16743 61.2144 3.79183 56.1849C0.474188 43.936 -0.334993 22.6832 0.555107 12.7056C0.636025 11.8133 1.36429 11.1644 2.25439 11.2455C3.14448 11.3266 3.79183 12.1378 3.71092 13.0301C2.57806 26.9823 4.84378 58.4563 10.3462 62.6744C12.9356 64.6214 13.0165 59.3486 22.7267 9.0553C22.8885 8.16299 23.7785 7.59516 24.5878 7.75739C25.4778 7.91962 26.0443 8.73081 25.8825 9.62311L20.2182 39.2312C15.6059 63.7291 15.6059 64.7023 12.6119 65.8381Z" fill="white"/>
<path d="M32.3856 28.6858C31.4956 28.4425 31.0101 27.5502 31.2529 26.7391C31.4956 25.9279 31.7384 25.1167 31.9001 24.3867C32.4666 22.2775 35.6224 23.1698 35.0559 25.1979L34.3277 27.6314C34.0849 28.4425 33.1949 28.9293 32.3856 28.6858ZM28.2589 54.806C23.5656 51.9667 27.0452 41.9081 29.068 34.5265C29.3108 33.6342 30.201 33.1474 31.091 33.3095C31.9001 33.553 32.4666 34.4453 32.2238 35.3377C31.4147 38.0956 27.4496 50.5067 29.8773 51.9667C31.981 53.1837 36.998 47.343 40.4775 40.8537C40.9631 40.1235 41.934 39.7991 42.7431 40.2046C43.4715 40.6102 43.7952 41.6649 43.3905 42.3949C40.3966 47.9109 33.6803 58.0507 28.2589 54.806Z" fill="white"/>
<path d="M42.4097 58.4081C41.5195 58.4081 40.7914 57.7591 40.7914 56.8667C40.063 42.2656 40.5486 28.8 42.1669 15.9833L27.9253 16.3888C27.0353 16.3888 26.3069 15.6588 26.3069 14.7665C26.226 13.8742 26.9544 13.1441 27.8444 13.1441L42.6525 12.6574C43.2188 8.84484 43.8662 5.1134 44.5946 1.46309C44.8372 0.570789 45.6465 0.00295801 46.5365 0.165197C47.4267 0.327431 47.993 1.21973 47.7502 2.11203C47.103 5.519 46.4555 9.08819 45.8893 12.6574L64.2576 12.1707C65.2286 12.1707 65.9569 12.9008 65.9569 13.793C65.9569 14.6854 65.2286 15.4154 64.3386 15.4154L45.4846 15.9021C43.7853 28.6377 43.2997 42.1033 44.0281 56.7047C44.0281 57.597 43.3807 58.4081 42.4907 58.4081H42.4097Z" fill="white"/>
<path d="M50.1385 54.6437C44.555 50.75 51.5141 33.1474 64.7846 33.1474C65.6748 33.1474 66.4029 33.8774 66.4029 34.7698C66.4029 35.6621 65.6748 36.3921 64.7846 36.3921C52.2422 36.3921 47.7109 56.4284 54.5081 51.2367C57.8257 48.8032 61.0625 42.6381 62.9234 38.9067C63.3281 38.0956 64.2183 37.7712 65.0274 38.0956C65.8367 38.42 66.2411 39.3123 65.9176 40.2046C65.3511 41.6649 65.0274 43.4495 64.7846 45.153C62.3571 59.2674 71.2581 48.7221 75.4657 40.8537C75.9513 40.0425 76.9222 39.7991 77.6506 40.2046C78.4597 40.6102 78.7834 41.5837 78.3788 42.3949C68.7497 60.1598 60.496 56.9963 60.9006 48.8844C58.3111 52.697 53.9416 57.2395 50.1385 54.6437Z" fill="white"/>
<path d="M77.2356 55.4549C76.3456 55.4549 75.6172 54.7249 75.6172 53.8326V34.4454C75.6172 33.553 76.3456 32.823 77.2356 32.823C78.1256 32.823 78.8539 33.553 78.8539 34.4454V44.0984C80.0677 41.2593 81.5242 38.42 83.1425 35.7433C84.8418 32.823 86.7839 32.904 87.7549 33.2286C90.2635 33.9586 90.3444 36.4733 90.506 41.5026C91.8009 38.3391 93.0146 36.7977 94.4711 36.4733C95.1993 36.3109 95.9277 36.4733 96.4942 36.8788C99.1644 38.5823 97.9507 46.3698 101.835 47.0186C102.887 47.1809 105.314 46.5319 109.846 40.6914C110.412 39.9614 111.464 39.8802 112.111 40.4481C112.84 40.9347 113.001 41.9893 112.435 42.7193C109.765 46.0451 105.557 50.8312 101.349 50.1823C95.9277 49.3712 95.523 42.3137 94.8758 40.0426C93.0956 42.3949 91.2344 49.29 90.7488 51.6423C90.587 52.4535 89.8588 53.0214 89.0495 52.9402C88.2404 52.9402 87.593 52.2102 87.5121 51.3991C87.1886 42.3137 87.2695 37.6088 86.7839 36.3109C85.6511 37.0412 81.0388 45.7207 78.773 54.2381C78.6111 54.9681 77.9639 55.4549 77.2356 55.4549Z" fill="white"/>
<path d="M114.886 28.6858C113.996 28.4425 113.51 27.5502 113.753 26.7391C113.996 25.9279 114.238 25.1167 114.4 24.3867C114.967 22.2775 118.122 23.1698 117.556 25.1979L116.828 27.6314C116.585 28.4425 115.695 28.9293 114.886 28.6858ZM110.759 54.806C106.066 51.9667 109.545 41.9081 111.568 34.5265C111.811 33.6342 112.701 33.1474 113.591 33.3095C114.4 33.553 114.967 34.4453 114.724 35.3377C113.915 38.0956 109.95 50.5067 112.377 51.9667C114.481 53.1837 119.498 47.343 122.978 40.8537C123.463 40.1235 124.434 39.7991 125.243 40.2046C125.972 40.6102 126.295 41.6649 125.891 42.3949C122.897 47.9109 116.18 58.0507 110.759 54.806Z" fill="white"/>
<path d="M123.459 55.2928C122.65 55.1305 122.083 54.4005 122.164 53.5893C122.488 48.3977 122.973 40.6914 123.863 34.4453C123.944 33.553 124.753 32.904 125.643 33.0663C126.533 33.1474 127.181 34.0398 127.019 34.9321C126.695 37.2033 126.453 39.8802 126.129 43.0437C128.395 37.8523 130.175 33.4719 133.654 33.6342C135.273 33.7153 136.729 34.7698 137.457 36.4733C139.076 40.2047 136.81 45.234 139.561 46.9374C142.474 48.8033 147.087 43.936 148.948 40.7726C149.353 39.9614 150.323 39.7179 151.133 40.2047C151.861 40.6102 152.185 41.5837 151.699 42.3949C148.867 47.343 142.717 52.7779 137.781 49.6956C133.169 46.7753 135.758 40.6102 134.463 37.7712C132.845 33.9586 128.88 44.3416 125.239 54.2381C124.996 55.0493 124.187 55.4549 123.459 55.2928Z" fill="white"/>
<path d="M161.016 66.0814C155.029 65.1891 150.821 60.0786 153.734 54.0758C155.919 49.6144 160.855 46.2074 165.467 44.1795C163.12 40.6914 160.045 37.6088 157.375 34.2019C151.873 27.2258 149.364 17.8972 155.514 11.4888C162.554 4.26933 174.125 9.05531 176.067 19.114C176.229 20.0063 175.663 20.8174 174.772 21.0608C173.882 21.223 173.073 20.6552 172.831 19.7629C171.455 12.3811 163.12 8.32524 157.861 13.7601C152.844 18.9517 155.595 26.7391 159.965 32.174C162.716 35.6621 166.033 39.0691 168.542 43.0437C172.426 41.827 177.443 41.0158 183.512 41.5026C184.402 41.5837 185.049 42.3949 184.968 43.2872C184.887 44.1795 184.159 44.8284 183.269 44.7472C178.009 44.3416 173.559 44.9907 170.16 45.9642C175.258 56.6716 171.455 67.5416 161.016 66.0814ZM166.033 62.1065C170.646 59.4298 169.432 51.8047 167.085 47.0186C163.12 48.6409 158.589 51.6423 156.647 55.5361C153.815 61.2954 161.664 64.5402 166.033 62.1065Z" fill="white"/>
<path d="M191.596 55.2928C174.199 55.2928 185.527 30.4705 194.752 33.2286C196.937 33.9586 198.394 36.3921 197.422 38.5012C197.018 39.3935 196.128 39.7179 195.238 39.3935C194.428 38.9879 194.105 38.0144 194.428 37.2033C194.428 37.2033 194.509 37.1221 194.428 36.96C192.81 33.4719 184.233 42.6381 185.932 48.9654C187.146 53.3458 197.908 55.3737 206.647 40.6914C207.133 39.9614 208.104 39.7179 208.832 40.1235C209.641 40.6102 209.884 41.5837 209.398 42.3949C203.41 52.3723 196.775 55.2928 191.596 55.2928Z" fill="white"/>
<path d="M207.466 54.7249C206.576 54.6437 205.848 53.9137 205.848 53.1026C205.929 46.7754 206.819 40.4481 206.9 34.283C206.9 33.3907 207.628 32.6607 208.518 32.6607C209.408 32.6607 210.136 33.3907 210.136 34.283C210.136 36.7165 209.974 39.2312 209.813 41.5837C212.483 37.2033 217.743 31.444 222.76 32.5795C223.65 32.7419 224.216 33.6342 223.973 34.5265C223.811 35.4186 222.921 35.9054 222.112 35.7433C217.904 34.8509 209.57 44.504 209.084 53.1837C209.084 53.9949 208.356 54.7249 207.466 54.7249Z" fill="white"/>
<path d="M230.495 28.6858C229.605 28.4425 229.119 27.5502 229.362 26.7391C229.605 25.9279 229.848 25.1167 230.01 24.3867C230.576 22.2775 233.731 23.1698 233.166 25.1979L232.437 27.6314C232.194 28.4425 231.304 28.9293 230.495 28.6858ZM226.368 54.806C221.675 51.9667 225.154 41.9081 227.177 34.5265C227.42 33.6342 228.31 33.1474 229.2 33.3095C230.01 33.553 230.576 34.4453 230.333 35.3377C229.524 38.0956 225.559 50.5067 227.987 51.9667C230.09 53.1837 235.108 47.343 238.587 40.8537C239.073 40.1235 240.043 39.7991 240.852 40.2046C241.58 40.6102 241.905 41.6649 241.501 42.3949C238.505 47.9109 231.79 58.0507 226.368 54.806Z" fill="white"/>
<path d="M241.503 73.0954C240.612 73.0954 239.884 72.4463 239.884 71.554C239.721 57.1149 239.966 59.1054 240.531 44.1795L240.289 44.5851C239.803 45.3151 238.752 45.4775 238.024 44.9907C237.296 44.504 237.052 43.5305 237.538 42.7193C238.428 41.5026 239.48 40.2047 240.694 39.0691C240.856 36.3921 240.935 33.7154 241.098 31.0384C241.18 30.1461 241.908 29.4161 242.798 29.497C243.687 29.497 244.335 30.3084 244.335 31.2005L244.091 36.3109C246.438 34.7698 249.352 33.3907 252.103 33.0663C263.108 31.7684 260.438 46.3698 250.647 53.1026C248.461 54.5626 245.954 55.6172 243.363 55.2116C243.121 66.2437 242.959 60.603 243.121 71.4728C243.121 72.3651 242.394 73.0954 241.503 73.0954ZM243.445 51.8858C249.675 53.5081 258.901 40.1235 255.34 36.7977C253.64 35.2565 248.301 36.7977 243.849 40.5291C243.687 44.3416 243.608 48.1542 243.445 51.8858Z" fill="white"/>
<path d="M266.437 55.7793C265.548 55.7793 264.818 55.1305 264.818 54.2381C264.09 39.637 264.576 28.8 266.195 15.9833L251.953 16.3888C251.062 16.3888 250.334 15.6588 250.334 14.7665C250.253 13.8742 250.981 13.1441 251.872 13.1441L266.681 12.6574C267.246 8.84484 267.895 5.1134 268.623 1.46309C268.865 0.570789 269.674 0.00295801 270.565 0.165197C271.455 0.327431 272.02 1.21973 271.779 2.11203C271.13 5.519 270.483 9.08819 269.916 12.6574L288.286 12.1707C289.255 12.1707 289.986 12.9008 289.986 13.793C289.986 14.6854 289.255 15.4154 288.367 15.4154L269.511 15.9021C267.813 28.6377 267.327 39.4747 268.055 54.0758C268.055 54.9681 267.409 55.7793 266.518 55.7793H266.437Z" fill="white"/>
<path d="M12.6119 65.8381C7.75682 67.7037 5.16743 61.2144 3.79183 56.1849C0.474188 43.936 -0.334993 22.6832 0.555107 12.7056C0.636025 11.8133 1.36429 11.1644 2.25439 11.2455C3.14448 11.3266 3.79183 12.1378 3.71092 13.0301C2.57806 26.9823 4.84378 58.4563 10.3462 62.6744C12.9356 64.6214 13.0165 59.3486 22.7267 9.0553C22.8885 8.16299 23.7785 7.59516 24.5878 7.75739C25.4778 7.91962 26.0443 8.73081 25.8825 9.62311L20.2182 39.2312C15.6059 63.7291 15.6059 64.7023 12.6119 65.8381Z" stroke="white"/>
<path d="M32.3856 28.6858C31.4956 28.4425 31.0101 27.5502 31.2529 26.7391C31.4956 25.9279 31.7384 25.1167 31.9001 24.3867C32.4666 22.2775 35.6224 23.1698 35.0559 25.1979L34.3277 27.6314C34.0849 28.4425 33.1949 28.9293 32.3856 28.6858ZM28.2589 54.806C23.5656 51.9667 27.0452 41.9081 29.068 34.5265C29.3108 33.6342 30.201 33.1474 31.091 33.3095C31.9001 33.553 32.4666 34.4453 32.2238 35.3377C31.4147 38.0956 27.4496 50.5067 29.8773 51.9667C31.981 53.1837 36.998 47.343 40.4775 40.8537C40.9631 40.1235 41.934 39.7991 42.7431 40.2046C43.4715 40.6102 43.7952 41.6649 43.3905 42.3949C40.3966 47.9109 33.6803 58.0507 28.2589 54.806Z" stroke="white"/>
<path d="M42.4097 58.4081C41.5195 58.4081 40.7914 57.7591 40.7914 56.8667C40.063 42.2656 40.5486 28.8 42.1669 15.9833L27.9253 16.3888C27.0353 16.3888 26.3069 15.6588 26.3069 14.7665C26.226 13.8742 26.9544 13.1441 27.8444 13.1441L42.6525 12.6574C43.2188 8.84484 43.8662 5.1134 44.5946 1.46309C44.8372 0.570789 45.6465 0.00295801 46.5365 0.165197C47.4267 0.327431 47.993 1.21973 47.7502 2.11203C47.103 5.519 46.4555 9.08819 45.8893 12.6574L64.2576 12.1707C65.2286 12.1707 65.9569 12.9008 65.9569 13.793C65.9569 14.6854 65.2286 15.4154 64.3386 15.4154L45.4846 15.9021C43.7853 28.6377 43.2997 42.1033 44.0281 56.7047C44.0281 57.597 43.3807 58.4081 42.4907 58.4081H42.4097Z" stroke="white"/>
<path d="M50.1385 54.6437C44.555 50.75 51.5141 33.1474 64.7846 33.1474C65.6748 33.1474 66.4029 33.8774 66.4029 34.7698C66.4029 35.6621 65.6748 36.3921 64.7846 36.3921C52.2422 36.3921 47.7109 56.4284 54.5081 51.2367C57.8257 48.8032 61.0625 42.6381 62.9234 38.9067C63.3281 38.0956 64.2183 37.7712 65.0274 38.0956C65.8367 38.42 66.2411 39.3123 65.9176 40.2046C65.3511 41.6649 65.0274 43.4495 64.7846 45.153C62.3571 59.2674 71.2581 48.7221 75.4657 40.8537C75.9513 40.0425 76.9222 39.7991 77.6506 40.2046C78.4597 40.6102 78.7834 41.5837 78.3788 42.3949C68.7497 60.1598 60.496 56.9963 60.9006 48.8844C58.3111 52.697 53.9416 57.2395 50.1385 54.6437Z" stroke="white"/>
<path d="M77.2356 55.4549C76.3456 55.4549 75.6172 54.7249 75.6172 53.8326V34.4454C75.6172 33.553 76.3456 32.823 77.2356 32.823C78.1256 32.823 78.8539 33.553 78.8539 34.4454V44.0984C80.0677 41.2593 81.5242 38.42 83.1425 35.7433C84.8418 32.823 86.7839 32.904 87.7549 33.2286C90.2635 33.9586 90.3444 36.4733 90.506 41.5026C91.8009 38.3391 93.0146 36.7977 94.4711 36.4733C95.1993 36.3109 95.9277 36.4733 96.4942 36.8788C99.1644 38.5823 97.9507 46.3698 101.835 47.0186C102.887 47.1809 105.314 46.5319 109.846 40.6914C110.412 39.9614 111.464 39.8802 112.111 40.4481C112.84 40.9347 113.001 41.9893 112.435 42.7193C109.765 46.0451 105.557 50.8312 101.349 50.1823C95.9277 49.3712 95.523 42.3137 94.8758 40.0426C93.0956 42.3949 91.2344 49.29 90.7488 51.6423C90.587 52.4535 89.8588 53.0214 89.0495 52.9402C88.2404 52.9402 87.593 52.2102 87.5121 51.3991C87.1886 42.3137 87.2695 37.6088 86.7839 36.3109C85.6511 37.0412 81.0388 45.7207 78.773 54.2381C78.6111 54.9681 77.9639 55.4549 77.2356 55.4549Z" stroke="white"/>
<path d="M114.886 28.6858C113.996 28.4425 113.51 27.5502 113.753 26.7391C113.996 25.9279 114.238 25.1167 114.4 24.3867C114.967 22.2775 118.122 23.1698 117.556 25.1979L116.828 27.6314C116.585 28.4425 115.695 28.9293 114.886 28.6858ZM110.759 54.806C106.066 51.9667 109.545 41.9081 111.568 34.5265C111.811 33.6342 112.701 33.1474 113.591 33.3095C114.4 33.553 114.967 34.4453 114.724 35.3377C113.915 38.0956 109.95 50.5067 112.377 51.9667C114.481 53.1837 119.498 47.343 122.978 40.8537C123.463 40.1235 124.434 39.7991 125.243 40.2046C125.972 40.6102 126.295 41.6649 125.891 42.3949C122.897 47.9109 116.18 58.0507 110.759 54.806Z" stroke="white"/>
<path d="M123.459 55.2928C122.65 55.1305 122.083 54.4005 122.164 53.5893C122.488 48.3977 122.973 40.6914 123.863 34.4453C123.944 33.553 124.753 32.904 125.643 33.0663C126.533 33.1474 127.181 34.0398 127.019 34.9321C126.695 37.2033 126.453 39.8802 126.129 43.0437C128.395 37.8523 130.175 33.4719 133.654 33.6342C135.273 33.7153 136.729 34.7698 137.457 36.4733C139.076 40.2047 136.81 45.234 139.561 46.9374C142.474 48.8033 147.087 43.936 148.948 40.7726C149.353 39.9614 150.323 39.7179 151.133 40.2047C151.861 40.6102 152.185 41.5837 151.699 42.3949C148.867 47.343 142.717 52.7779 137.781 49.6956C133.169 46.7753 135.758 40.6102 134.463 37.7712C132.845 33.9586 128.88 44.3416 125.239 54.2381C124.996 55.0493 124.187 55.4549 123.459 55.2928Z" stroke="white"/>
<path d="M161.016 66.0814C155.029 65.1891 150.821 60.0786 153.734 54.0758C155.919 49.6144 160.855 46.2074 165.467 44.1795C163.12 40.6914 160.045 37.6088 157.375 34.2019C151.873 27.2258 149.364 17.8972 155.514 11.4888C162.554 4.26933 174.125 9.05531 176.067 19.114C176.229 20.0063 175.663 20.8174 174.772 21.0608C173.882 21.223 173.073 20.6552 172.831 19.7629C171.455 12.3811 163.12 8.32524 157.861 13.7601C152.844 18.9517 155.595 26.7391 159.965 32.174C162.716 35.6621 166.033 39.0691 168.542 43.0437C172.426 41.827 177.443 41.0158 183.512 41.5026C184.402 41.5837 185.049 42.3949 184.968 43.2872C184.887 44.1795 184.159 44.8284 183.269 44.7472C178.009 44.3416 173.559 44.9907 170.16 45.9642C175.258 56.6716 171.455 67.5416 161.016 66.0814ZM166.033 62.1065C170.646 59.4298 169.432 51.8047 167.085 47.0186C163.12 48.6409 158.589 51.6423 156.647 55.5361C153.815 61.2954 161.664 64.5402 166.033 62.1065Z" stroke="white"/>
<path d="M191.596 55.2928C174.199 55.2928 185.527 30.4705 194.752 33.2286C196.937 33.9586 198.394 36.3921 197.422 38.5012C197.018 39.3935 196.128 39.7179 195.238 39.3935C194.428 38.9879 194.105 38.0144 194.428 37.2033C194.428 37.2033 194.509 37.1221 194.428 36.96C192.81 33.4719 184.233 42.6381 185.932 48.9654C187.146 53.3458 197.908 55.3737 206.647 40.6914C207.133 39.9614 208.104 39.7179 208.832 40.1235C209.641 40.6102 209.884 41.5837 209.398 42.3949C203.41 52.3723 196.775 55.2928 191.596 55.2928Z" stroke="white"/>
<path d="M207.466 54.7249C206.576 54.6437 205.848 53.9137 205.848 53.1026C205.929 46.7754 206.819 40.4481 206.9 34.283C206.9 33.3907 207.628 32.6607 208.518 32.6607C209.408 32.6607 210.136 33.3907 210.136 34.283C210.136 36.7165 209.974 39.2312 209.813 41.5837C212.483 37.2033 217.743 31.444 222.76 32.5795C223.65 32.7419 224.216 33.6342 223.973 34.5265C223.811 35.4186 222.921 35.9054 222.112 35.7433C217.904 34.8509 209.57 44.504 209.084 53.1837C209.084 53.9949 208.356 54.7249 207.466 54.7249Z" stroke="white"/>
<path d="M230.495 28.6858C229.605 28.4425 229.119 27.5502 229.362 26.7391C229.605 25.9279 229.848 25.1167 230.01 24.3867C230.576 22.2775 233.731 23.1698 233.166 25.1979L232.437 27.6314C232.194 28.4425 231.304 28.9293 230.495 28.6858ZM226.368 54.806C221.675 51.9667 225.154 41.9081 227.177 34.5265C227.42 33.6342 228.31 33.1474 229.2 33.3095C230.01 33.553 230.576 34.4453 230.333 35.3377C229.524 38.0956 225.559 50.5067 227.987 51.9667C230.09 53.1837 235.108 47.343 238.587 40.8537C239.073 40.1235 240.043 39.7991 240.852 40.2046C241.58 40.6102 241.905 41.6649 241.501 42.3949C238.505 47.9109 231.79 58.0507 226.368 54.806Z" stroke="white"/>
<path d="M241.503 73.0954C240.612 73.0954 239.884 72.4463 239.884 71.554C239.721 57.1149 239.966 59.1054 240.531 44.1795L240.289 44.5851C239.803 45.3151 238.752 45.4775 238.024 44.9907C237.296 44.504 237.052 43.5305 237.538 42.7193C238.428 41.5026 239.48 40.2047 240.694 39.0691C240.856 36.3921 240.935 33.7154 241.098 31.0384C241.18 30.1461 241.908 29.4161 242.798 29.497C243.687 29.497 244.335 30.3084 244.335 31.2005L244.091 36.3109C246.438 34.7698 249.352 33.3907 252.103 33.0663C263.108 31.7684 260.438 46.3698 250.647 53.1026C248.461 54.5626 245.954 55.6172 243.363 55.2116C243.121 66.2437 242.959 60.603 243.121 71.4728C243.121 72.3651 242.394 73.0954 241.503 73.0954ZM243.445 51.8858C249.675 53.5081 258.901 40.1235 255.34 36.7977C253.64 35.2565 248.301 36.7977 243.849 40.5291C243.687 44.3416 243.608 48.1542 243.445 51.8858Z" stroke="white"/>
<path d="M266.437 55.7793C265.548 55.7793 264.818 55.1305 264.818 54.2381C264.09 39.637 264.576 28.8 266.195 15.9833L251.953 16.3888C251.062 16.3888 250.334 15.6588 250.334 14.7665C250.253 13.8742 250.981 13.1441 251.872 13.1441L266.681 12.6574C267.246 8.84484 267.895 5.1134 268.623 1.46309C268.865 0.570789 269.674 0.00295801 270.565 0.165197C271.455 0.327431 272.02 1.21973 271.779 2.11203C271.13 5.519 270.483 9.08819 269.916 12.6574L288.286 12.1707C289.255 12.1707 289.986 12.9008 289.986 13.793C289.986 14.6854 289.255 15.4154 288.367 15.4154L269.511 15.9021C267.813 28.6377 267.327 39.4747 268.055 54.0758C268.055 54.9681 267.409 55.7793 266.518 55.7793H266.437Z" stroke="white"/>
<path d="M48.022 74.5507V84.937H46.0932V80.4858H40.7218V84.937H38.793V74.5507H40.7218V78.8388H46.0932V74.5507H48.022ZM55.6572 85.0856C54.5988 85.0856 53.6441 84.8579 52.7934 84.403C51.9427 83.9379 51.2751 83.3 50.7904 82.4888C50.3055 81.6679 50.0632 80.7528 50.0632 79.7439C50.0632 78.7349 50.3055 77.8249 50.7904 77.0137C51.2751 76.1928 51.9427 75.5546 52.7934 75.0995C53.6441 74.6346 54.5988 74.4023 55.6572 74.4023C56.7155 74.4023 57.6702 74.6346 58.5209 75.0995C59.3716 75.5546 60.0392 76.1877 60.5239 76.9988C61.0085 77.81 61.2509 78.7251 61.2509 79.7439C61.2509 80.7628 61.0085 81.6777 60.5239 82.4888C60.0392 83.3 59.3716 83.9379 58.5209 84.403C57.6702 84.8579 56.7155 85.0856 55.6572 85.0856ZM55.6572 83.3939C56.3495 83.3939 56.9727 83.2407 57.5267 82.9339C58.0806 82.6174 58.516 82.1823 58.8325 81.6284C59.149 81.0644 59.3072 80.4363 59.3072 79.7439C59.3072 79.0514 59.149 78.4281 58.8325 77.8744C58.516 77.3105 58.0806 76.8751 57.5267 76.5686C56.9727 76.2521 56.3495 76.0937 55.6572 76.0937C54.9646 76.0937 54.3416 76.2521 53.7876 76.5686C53.2337 76.8751 52.7983 77.3105 52.4818 77.8744C52.1653 78.4281 52.0069 79.0514 52.0069 79.7439C52.0069 80.4363 52.1653 81.0644 52.4818 81.6284C52.7983 82.1823 53.2337 82.6174 53.7876 82.9339C54.3416 83.2407 54.9646 83.3939 55.6572 83.3939ZM63.2955 74.5507H65.2246V83.3049H70.6551V84.937H63.2955V74.5507ZM72.1779 74.5507H74.1069V84.937H72.1779V74.5507ZM80.136 85.0856C79.3348 85.0856 78.5583 84.9716 77.8065 84.7442C77.0646 84.5167 76.476 84.2149 76.0409 83.8391L76.7086 82.3405C77.1339 82.6767 77.6532 82.9537 78.2665 83.1714C78.8897 83.3791 79.5127 83.483 80.136 83.483C80.9076 83.483 81.4813 83.3593 81.8572 83.1121C82.243 82.8646 82.4358 82.5384 82.4358 82.1328C82.4358 81.836 82.3269 81.5937 82.1095 81.4058C81.9016 81.2079 81.6346 81.0546 81.3081 80.9458C80.9818 80.837 80.5367 80.7132 79.9727 80.5749C79.1813 80.3867 78.5385 80.1988 78.0439 80.0109C77.5592 79.823 77.1388 79.5311 76.7827 79.1356C76.4365 78.73 76.2634 78.1858 76.2634 77.5032C76.2634 76.9295 76.4167 76.4102 76.7232 75.9453C77.0399 75.4707 77.5097 75.0946 78.133 74.8177C78.766 74.5407 79.5376 74.4023 80.4476 74.4023C81.0806 74.4023 81.7039 74.4814 82.3172 74.6398C82.9304 74.7979 83.4597 75.0253 83.9048 75.3223L83.2965 76.8209C82.8413 76.5537 82.3667 76.3509 81.872 76.2125C81.3774 76.0739 80.8976 76.0046 80.4327 76.0046C79.6711 76.0046 79.1023 76.1332 78.7265 76.3905C78.3604 76.6477 78.1774 76.9891 78.1774 77.4144C78.1774 77.7111 78.2813 77.9535 78.489 78.1414C78.7067 78.3293 78.9786 78.4777 79.3051 78.5865C79.6316 78.6953 80.0767 78.8191 80.6404 78.9574C81.412 79.1356 82.0451 79.3235 82.5397 79.5214C83.0344 79.7093 83.4546 80.0012 83.8009 80.3967C84.1569 80.7923 84.3351 81.3265 84.3351 81.9993C84.3351 82.573 84.1769 83.0923 83.8602 83.5572C83.5537 84.0221 83.0837 84.393 82.4506 84.67C81.8176 84.947 81.046 85.0856 80.136 85.0856ZM88.2097 76.1828H84.7674V74.5507H93.5811V76.1828H90.1388V84.937H88.2097V76.1828ZM95.0288 74.5507H96.9576V84.937H95.0288V74.5507ZM104.574 85.0856C103.526 85.0856 102.576 84.8579 101.726 84.403C100.885 83.9379 100.222 83.3 99.7374 82.4888C99.2625 81.6777 99.0251 80.7628 99.0251 79.7439C99.0251 78.7251 99.2674 77.81 99.752 76.9988C100.237 76.1877 100.899 75.5546 101.74 75.0995C102.591 74.6346 103.541 74.4023 104.589 74.4023C105.44 74.4023 106.216 74.5507 106.919 74.8474C107.621 75.1442 108.215 75.5744 108.699 76.1384L107.453 77.3105C106.701 76.4993 105.776 76.0937 104.678 76.0937C103.966 76.0937 103.328 76.2521 102.764 76.5686C102.2 76.8751 101.76 77.3056 101.444 77.8595C101.127 78.4135 100.969 79.0416 100.969 79.7439C100.969 80.4463 101.127 81.0744 101.444 81.6284C101.76 82.1823 102.2 82.6174 102.764 82.9339C103.328 83.2407 103.966 83.3939 104.678 83.3939C105.776 83.3939 106.701 82.9835 107.453 82.1623L108.699 83.3495C108.215 83.9132 107.616 84.3435 106.904 84.6402C106.202 84.937 105.425 85.0856 104.574 85.0856ZM123.877 74.5507V84.937H121.948V80.4858H116.577V84.937H114.648V74.5507H116.577V78.8388H121.948V74.5507H123.877ZM134.45 83.3198V84.937H126.66V74.5507H134.243V76.1679H128.589V78.8684H133.605V80.456H128.589V83.3198H134.45ZM143.337 82.5332H138.144L137.12 84.937H135.132L139.806 74.5507H141.705L146.393 84.937H144.376L143.337 82.5332ZM142.699 81.02L140.74 76.4795L138.796 81.02H142.699ZM147.714 74.5507H149.643V83.3049H155.074V84.937H147.714V74.5507ZM157.733 76.1828H154.291V74.5507H163.104V76.1828H159.662V84.937H157.733V76.1828ZM173.781 74.5507V84.937H171.852V80.4858H166.481V84.937H164.552V74.5507H166.481V78.8388H171.852V74.5507H173.781ZM184.938 74.5507C185.838 74.5507 186.62 74.6991 187.282 74.9958C187.955 75.2925 188.469 75.7179 188.826 76.2718C189.182 76.8258 189.36 77.4835 189.36 78.2453C189.36 78.997 189.182 79.6549 188.826 80.2186C188.469 80.7725 187.955 81.1979 187.282 81.4946C186.62 81.7914 185.838 81.9398 184.938 81.9398H182.594V84.937H180.665V74.5507H184.938ZM184.849 80.3077C185.69 80.3077 186.328 80.1295 186.763 79.7735C187.198 79.4174 187.416 78.9079 187.416 78.2453C187.416 77.5825 187.198 77.073 186.763 76.717C186.328 76.3609 185.69 76.1828 184.849 76.1828H182.594V80.3077H184.849ZM197.501 82.5332H192.307L191.284 84.937H189.295L193.969 74.5507H195.869L200.557 84.937H198.539L197.501 82.5332ZM196.863 81.02L194.904 76.4795L192.96 81.02H196.863ZM208.674 84.937L206.552 81.8953C206.463 81.9053 206.329 81.9102 206.151 81.9102H203.807V84.937H201.878V74.5507H206.151C207.052 74.5507 207.833 74.6991 208.496 74.9958C209.168 75.2925 209.683 75.7179 210.039 76.2718C210.395 76.8258 210.573 77.4835 210.573 78.2453C210.573 79.0267 210.38 79.6993 209.994 80.2632C209.619 80.827 209.074 81.2474 208.362 81.5244L210.751 84.937H208.674ZM208.629 78.2453C208.629 77.5825 208.412 77.073 207.976 76.717C207.541 76.3609 206.903 76.1828 206.062 76.1828H203.807V80.3225H206.062C206.903 80.3225 207.541 80.1444 207.976 79.7884C208.412 79.4223 208.629 78.9079 208.629 78.2453ZM214.693 76.1828H211.251V74.5507H220.064V76.1828H216.622V84.937H214.693V76.1828ZM230.741 74.5507V84.937H229.153L223.426 77.9039V84.937H221.512V74.5507H223.1L228.827 81.5837V74.5507H230.741ZM241.314 83.3198V84.937H233.524V74.5507H241.107V76.1679H235.454V78.8684H240.468V80.456H235.454V83.3198H241.314ZM250.261 84.937L248.138 81.8953C248.049 81.9053 247.917 81.9102 247.738 81.9102H245.393V84.937H243.466V74.5507H247.738C248.638 74.5507 249.419 74.6991 250.082 74.9958C250.754 75.2925 251.27 75.7179 251.626 76.2718C251.982 76.8258 252.159 77.4835 252.159 78.2453C252.159 79.0267 251.966 79.6993 251.582 80.2632C251.205 80.827 250.661 81.2474 249.949 81.5244L252.338 84.937H250.261ZM250.217 78.2453C250.217 77.5825 249.998 77.073 249.563 76.717C249.128 76.3609 248.489 76.1828 247.649 76.1828H245.393V80.3225H247.649C248.489 80.3225 249.128 80.1444 249.563 79.7884C249.998 79.4223 250.217 78.9079 250.217 78.2453ZM257.538 85.0856C256.735 85.0856 255.959 84.9716 255.207 84.7442C254.466 84.5167 253.877 84.2149 253.442 83.8391L254.11 82.3405C254.535 82.6767 255.054 82.9537 255.668 83.1714C256.291 83.3791 256.914 83.483 257.538 83.483C258.31 83.483 258.882 83.3593 259.259 83.1121C259.645 82.8646 259.838 82.5384 259.838 82.1328C259.838 81.836 259.728 81.5937 259.51 81.4058C259.303 81.2079 259.035 81.0546 258.71 80.9458C258.384 80.837 257.938 80.7132 257.375 80.5749C256.582 80.3867 255.94 80.1988 255.445 80.0109C254.961 79.823 254.54 79.5311 254.184 79.1356C253.838 78.73 253.666 78.1858 253.666 77.5032C253.666 76.9295 253.819 76.4102 254.124 75.9453C254.442 75.4707 254.912 75.0946 255.535 74.8177C256.168 74.5407 256.94 74.4023 257.849 74.4023C258.482 74.4023 259.105 74.4814 259.719 74.6398C260.331 74.7979 260.861 75.0253 261.305 75.3223L260.698 76.8209C260.242 76.5537 259.768 76.3509 259.273 76.2125C258.779 76.0739 258.298 76.0046 257.833 76.0046C257.072 76.0046 256.503 76.1332 256.128 76.3905C255.761 76.6477 255.579 76.9891 255.579 77.4144C255.579 77.7111 255.682 77.9535 255.891 78.1414C256.107 78.3293 256.379 78.4777 256.707 78.5865C257.033 78.6953 257.477 78.8191 258.042 78.9574C258.814 79.1356 259.447 79.3235 259.94 79.5214C260.435 79.7093 260.856 80.0012 261.203 80.3967C261.559 80.7923 261.735 81.3265 261.735 81.9993C261.735 82.573 261.577 83.0923 261.261 83.5572C260.954 84.0221 260.484 84.393 259.852 84.67C259.219 84.947 258.447 85.0856 257.538 85.0856Z" fill="white"/>
<path d="M12.6329 86.4847C12.3034 86.4847 12.0337 86.2451 12.0337 85.9156C11.884 81.5119 12.3034 77.2877 13.1721 73.6628C13.8911 70.667 14.8797 68.2405 15.7485 67.3119C16.827 66.2033 19.1937 66.6528 16.9468 72.884C16.3776 74.5016 15.6287 76.0595 14.7899 77.4075C17.546 75.2507 20.2721 75.8798 19.4932 79.1451C20.5717 78.8456 21.6502 78.6958 22.6088 78.6958C22.9384 78.6958 23.208 78.9654 23.208 79.2949C23.208 79.6244 22.9384 79.894 22.6088 79.894C21.5004 79.894 20.2721 80.1337 19.0439 80.553C18.8641 80.9426 18.6844 81.3619 18.4447 81.8114C17.546 83.5489 16.0781 84.5975 14.9996 84.867C12.8126 85.4363 11.7941 82.0809 18.1152 79.6244C18.2949 79.0851 18.6544 77.9168 18.265 77.4975C17.546 76.6886 13.5616 78.9354 13.262 82.0809C13.2021 83.3393 13.2021 84.5975 13.2321 85.8556C13.2321 86.1851 12.9924 86.4847 12.6629 86.4847H12.6329ZM13.7713 76.7484C15.8683 73.3633 17.0067 69.2891 16.6472 68.1207C15.7185 69.0493 14.4304 72.6442 13.7713 76.7484ZM14.5202 83.7586C15.0595 83.6986 16.5274 82.9498 17.3962 81.2421C15.0595 82.4105 14.3704 83.5788 14.5202 83.7586ZM26.9821 94.5435C23.9865 100.864 17.935 96.2809 27.7912 86.2451C28.0607 84.1182 28.1805 81.9012 28.1805 79.894C25.1847 86.2451 19.4628 84.897 23.2974 77.0182C23.4172 76.7186 23.7767 76.5986 24.0763 76.7484C24.3758 76.8984 24.4958 77.2577 24.3758 77.5575C23.0278 80.3435 22.6982 82.9798 24.1063 82.6802C25.5442 82.3507 27.2819 79.894 28.0907 76.5986C28.1505 76.2991 28.4202 76.1193 28.7198 76.1493C28.9893 76.1493 29.2291 76.3891 29.2591 76.6886C29.4388 78.6658 29.4388 81.7214 29.1391 84.927C31.0565 83.0695 33.0037 81.1223 34.4416 78.9054C34.6214 78.6358 35.0109 78.5758 35.2805 78.7556C35.55 78.9354 35.64 79.2949 35.4602 79.5644C33.6628 82.3207 31.1763 84.5675 28.9295 86.8142C28.6298 89.2409 28.0307 92.3265 26.9821 94.5435ZM23.6867 96.1312C23.8665 96.5207 26.2033 96.0712 27.4914 88.3421C25.784 90.2893 24.8551 91.8772 24.3458 92.9556C23.4772 94.783 23.5072 95.8016 23.6867 96.1312Z" fill="white"/>
</g>
<defs>
<clipPath id="clip0_254_2">
<rect width="290" height="100.93" fill="white"/>
</clipPath>
</defs>
</svg>
