<svg width="291" height="99" viewBox="0 0 291 99" fill="none" xmlns="http://www.w3.org/2000/svg">
<path fill-rule="evenodd" clip-rule="evenodd" d="M12.8999 66.6C7.99986 68.5 5.39987 61.9999 4.09987 56.9999C0.799874 44.7999 -0.100145 23.5 0.799855 13.6C0.899855 12.7 1.59987 12 2.49987 12.1C3.39987 12.2 4.09987 12.9998 3.99987 13.8998C2.89987 27.7998 5.09987 59.2999 10.5999 63.4999C13.1999 65.3999 13.2999 60.1998 22.9999 9.89983C23.0999 8.99983 23.9999 8.50002 24.7999 8.60002C25.6999 8.80002 26.2999 9.59993 26.0999 10.4999L20.4999 40.1C15.8999 64.5 15.8999 65.5 12.8999 66.6ZM42.6999 59.2001C41.7999 59.2001 40.9999 58.6001 40.9999 57.7001C40.8665 54.4335 40.7665 51.1999 40.6999 47.9999C37.2999 52.9999 32.5999 58 28.4999 55.6C23.7999 52.8 27.2999 42.6998 29.2999 35.3998C29.5999 34.4998 30.4999 34 31.2999 34.1C32.1999 34.4 32.6999 35.3001 32.4999 36.2001C31.6999 38.9001 27.6999 51.2997 30.0999 52.7997C32.1999 53.9997 37.1999 48.2001 40.6999 41.7001C40.7999 33.1001 41.3999 24.7997 42.3999 16.7997L28.1999 17.2001C27.2999 17.2001 26.5999 16.5 26.5999 15.6C26.4999 14.7 27.1999 13.9999 28.0999 13.9999L42.8999 13.4999C43.4332 9.69993 44.0665 5.9664 44.7999 2.29973C45.0999 1.39973 45.8999 0.899927 46.7999 0.999927C47.6999 1.19993 48.1999 2.09993 47.9999 2.99993C47.2999 6.39993 46.6999 9.89993 46.0999 13.4999L64.4999 12.9999C65.4999 12.9999 66.1999 13.8 66.1999 14.6C66.1999 15.5 65.4999 16.2997 64.5999 16.2997L45.6999 16.7997C43.9999 29.4997 43.4999 42.8999 44.2999 57.4999C44.2999 58.3999 43.5999 59.2001 42.6999 59.2001ZM32.6999 29.4999C31.7999 29.2999 31.2999 28.4 31.5999 27.6C31.7999 26.8 32.0999 26.0001 32.1999 25.2001C32.7999 23.1001 35.9999 23.9999 35.3999 25.9999L34.6999 28.4999C34.3999 29.2999 33.4999 29.7999 32.6999 29.4999ZM50.4999 55.4999C44.8999 51.5999 51.7999 33.9999 65.0999 33.9999C65.9999 33.9999 66.6999 34.7 66.6999 35.6C66.6999 36.5 65.9999 37.2001 65.0999 37.2001C52.5999 37.2001 47.9999 57.2 54.7999 52.1C58.0999 49.6 61.3999 43.5001 63.1999 39.7001C63.5999 38.9001 64.4999 38.5998 65.2999 38.8998C66.0999 39.1998 66.4999 40.0999 66.1999 40.9999C65.6999 42.4999 65.2999 44.2999 65.0999 45.9999C62.6999 60.0999 71.5999 49.5001 75.7999 41.7001C75.7999 41.6335 75.8332 41.5666 75.8999 41.4999V35.2997C75.8999 34.3997 76.5999 33.7001 77.4999 33.7001C78.3999 33.7001 79.0999 34.3997 79.0999 35.2997V44.8998C80.3999 42.0998 81.7999 39.2 83.3999 36.6C85.0999 33.7 87.0999 33.7 87.9999 34.1C90.4999 34.8 90.5999 37.2997 90.7999 42.2997C92.0999 39.1997 93.2999 37.5997 94.7999 37.2997C95.4999 37.0997 96.1999 37.3001 96.7999 37.7001C99.3999 39.4001 98.1999 47.1997 102.1 47.7997C103.2 47.9997 105.6 47.3999 110.1 41.4999C110.7 39.3999 111.3 37.2998 111.8 35.3998C112.1 34.4998 113 34 113.9 34.1C114.7 34.4 115.2 35.3001 115 36.2001C114.2 38.9001 110.2 51.2997 112.6 52.7997C114.7 53.9997 119.8 48.2001 123.2 41.7001C123.267 41.6335 123.333 41.5666 123.4 41.4999C123.6 39.2999 123.8 37.1997 124.1 35.2997C124.2 34.3997 125 33.6998 125.9 33.8998C126.8 33.9998 127.4 34.8997 127.3 35.7997C126.9 37.9997 126.7 40.6998 126.4 43.8998C128.6 38.6998 130.4 34.2999 133.9 34.4999C135.5 34.4999 137 35.5997 137.7 37.2997C139.3 40.9997 137.1 46.0997 139.8 47.7997C142.7 49.5997 147.3 44.8 149.2 41.6C149.6 40.8 150.6 40.4999 151.4 40.9999C152.1 41.3999 152.4 42.4001 151.9 43.2001C149.1 48.2001 143 53.5999 138 50.4999C133.4 47.5999 136 41.4 134.7 38.6C133.1 34.8 129.1 45.2 125.5 55.1C125.2 55.9 124.4 56.3 123.7 56.1C122.9 55.9 122.3 55.1998 122.4 54.3998C122.5 52.6998 122.6 50.7 122.8 48.6C119.4 53.4 114.9 57.9 111 55.6C108.8 54.3 108.4 51.2997 108.8 47.7997C106.6 49.7997 104.1 51.3999 101.6 50.9999C96.1999 50.1999 95.7999 43.0998 95.1999 40.8998C93.3999 43.1998 91.4999 50.0999 90.9999 52.4999C90.8999 53.2999 90.0999 53.7997 89.2999 53.7997C88.4999 53.7997 87.8999 53.0001 87.7999 52.2001C87.4999 43.1001 87.5999 38.4 87.0999 37.1C85.8999 37.9 81.2999 46.5 79.0999 55.1C78.8999 55.8 78.2999 56.2997 77.4999 56.2997C76.5999 56.2997 75.8999 55.5 75.8999 54.6V47.7997C67.4999 60.2997 60.7999 57.0001 61.1999 49.7001C58.5999 53.5001 54.2999 58.0999 50.4999 55.4999ZM115.1 29.4999C114.3 29.2999 113.8 28.4 114 27.6C114.3 26.8 114.5 26.0001 114.7 25.2001C115.2 23.1001 118.4 23.9999 117.8 25.9999L117.1 28.4999C116.8 29.2999 116 29.7999 115.1 29.4999ZM161.2 66.8998C155.3 65.9998 151.1 60.8998 154 54.8998C156.1 50.3998 161.1 46.9999 165.7 44.9999C163.3 41.4999 160.3 38.3999 157.6 34.9999C152.1 28.0999 149.6 18.6997 155.7 12.2997C162.8 5.09973 174.3 9.89993 176.3 19.9999C176.4 20.8999 175.9 21.6998 175 21.8998C174.1 22.0998 173.3 21.5 173 20.6C171.7 13.2 163.3 9.20002 158.1 14.6C153.1 19.8 155.8 27.5999 160.2 32.9999C162.9 36.4999 166.2 39.8998 168.8 43.8998C172.6 42.6998 177.6 41.7997 183.7 42.2997C183.833 42.2997 183.933 42.3332 184 42.3998C186.2 37.1998 190.8 32.8 194.9 34.1C197.1 34.8 198.6 37.1997 197.6 39.2997C197.2 40.1997 196.3 40.5001 195.4 40.2001C194.6 39.8001 194.3 38.7999 194.6 37.9999C194.6 37.9999 194.7 37.9997 194.6 37.7997C193 34.2997 184.4 43.4997 186.1 49.7997C187.3 54.1997 198 56.2 206.8 41.6C206.9 39.4 207.1 37.3 207.1 35.1C207.1 34.2 207.8 33.4999 208.7 33.4999C209.6 33.4999 210.3 34.2 210.3 35.1C210.3 37.5 210.2 40.0998 210 42.3998C212.7 37.9998 217.9 32.2998 222.9 33.3998C223.8 33.5998 224.4 34.4998 224.1 35.3998C224 36.1998 223.1 36.7 222.3 36.6C218.1 35.7 209.7 45.2999 209.3 53.9999C209.3 54.7999 208.5 55.4999 207.6 55.4999C206.8 55.4999 206 54.6998 206 53.8998C206.067 51.8998 206.167 49.8998 206.3 47.8998C201.3 54.0998 196 56.1 191.8 56.1C183.8 56.1 181.9 50.8999 183 45.4999C178 45.1999 173.7 45.7997 170.4 46.7997C175.5 57.4997 171.7 68.2998 161.2 66.8998ZM166.2 62.8998C170.9 60.1998 169.6 52.5997 167.3 47.7997C163.3 49.4997 158.8 52.4997 156.9 56.2997C154 62.0997 161.9 65.2998 166.2 62.8998ZM230.7 29.4999C229.8 29.2999 229.3 28.4 229.5 27.6C229.8 26.8 230 26.0001 230.2 25.2001C230.7 23.1001 233.9 23.9999 233.3 25.9999L232.6 28.4999C232.4 29.2999 231.5 29.7999 230.7 29.4999ZM226.5 55.6C221.8 52.8 225.3 42.6998 227.3 35.3998C227.6 34.4998 228.5 34 229.4 34.1C230.2 34.4 230.7 35.3001 230.5 36.2001C229.7 38.9001 225.7 51.2997 228.1 52.7997C230.2 53.9997 235.3 48.2001 238.7 41.7001C239 41.3001 239.4 40.9998 239.8 40.8998C240.133 40.5665 240.467 40.2332 240.8 39.8998C241 37.1998 241.1 34.4998 241.3 31.8998C241.3 30.9998 242.1 30.2997 242.9 30.2997C243.8 30.2997 244.5 31.0999 244.5 31.9999L244.2 37.1C246.6 35.6 249.5 34.1998 252.2 33.8998C263.2 32.5998 260.6 47.1998 250.8 53.8998C248.6 55.3998 246.1 56.3999 243.5 55.9999C243.3 66.9999 243.1 61.3997 243.3 72.2997C243.3 73.1997 242.5 73.8998 241.7 73.8998C240.8 73.8998 240 73.1998 240 72.3998C239.9 57.8998 240.1 59.8999 240.7 44.9999L240.4 45.3998C240.4 45.4665 240.367 45.5334 240.3 45.6C236.9 51.2 231.2 58.4 226.5 55.6ZM243.6 52.7001C249.8 54.3001 259 41 255.5 37.6C253.8 36.1 248.4 37.5998 244 41.3998C243.8 45.1998 243.8 49.0001 243.6 52.7001ZM266.6 56.6C265.7 56.6 264.9 55.9 264.9 55.1C264.2 40.5 264.7 29.5997 266.3 16.7997L252.1 17.2001C251.2 17.2001 250.5 16.5 250.5 15.6C250.4 14.7 251.1 13.9999 252 13.9999L266.8 13.4999C267.4 9.69993 268.033 5.9664 268.7 2.29973C269 1.39973 269.8 0.899927 270.7 0.999927C271.6 1.19993 272.1 2.09993 271.9 2.99993C271.3 6.39993 270.6 9.89993 270 13.4999L288.4 12.9999C289.4 12.9999 290.1 13.8 290.1 14.6C290.1 15.5 289.4 16.2997 288.5 16.2997L269.6 16.7997C267.9 29.4997 267.5 40.2998 268.2 54.8998C268.2 55.7998 267.5 56.6 266.6 56.6Z" fill="white"/>
<path d="M45.1999 79.5V83.7998H39.7999V79.5H37.8999V90H39.7999V85.5H45.1999V90H47.1999V79.5H45.1999ZM54.8999 90.1001C58.0999 90.1001 60.4999 87.8998 60.4999 84.7998C60.4999 81.5998 58.0999 79.3999 54.8999 79.3999C51.5999 79.3999 49.1999 81.5998 49.1999 84.7998C49.1999 87.8998 51.5999 90.1001 54.8999 90.1001ZM54.8999 88.3999C52.7999 88.3999 51.1999 86.8998 51.1999 84.7998C51.1999 82.5998 52.7999 81.1001 54.8999 81.1001C56.9999 81.1001 58.5999 82.5998 58.5999 84.7998C58.5999 86.8998 56.9999 88.3999 54.8999 88.3999ZM62.5999 90H69.9999V88.3999H64.4999V79.5H62.5999V90ZM71.5999 90H73.4999V79.5H71.5999V90ZM79.5999 90.1001C82.4999 90.1001 83.8999 88.7 83.8999 87C83.8999 83.2 77.5999 84.5999 77.5999 82.3999C77.5999 81.5999 78.2999 81 79.8999 81C80.7999 81 81.8999 81.1998 82.7999 81.7998L83.3999 80.2998C82.4999 79.6998 81.1999 79.3999 79.8999 79.3999C77.0999 79.3999 75.6999 80.8 75.6999 82.5C75.6999 86.4 81.8999 84.9002 81.8999 87.2002C81.8999 87.9002 81.2999 88.5 79.5999 88.5C78.2999 88.5 76.9999 88.0999 76.1999 87.3999L75.4999 88.8999C76.3999 89.5999 77.9999 90.1001 79.5999 90.1001ZM87.7999 90H89.6999V81.1001H93.1999V79.5H84.2999V81.1001H87.7999V90ZM94.6999 90H96.5999V79.5H94.6999V90ZM104.3 90.2002C106.1 90.2002 107.5 89.5999 108.5 88.3999L107.2 87.2002C106.5 88.1002 105.5 88.5 104.4 88.5C102.3 88.5 100.7 86.9998 100.7 84.7998C100.7 82.5998 102.3 81.1001 104.4 81.1001C105.5 81.1001 106.5 81.4998 107.2 82.2998L108.5 81.2002C107.5 80.0002 106.1 79.3999 104.3 79.3999C101.1 79.3999 98.6999 81.6998 98.6999 84.7998C98.6999 87.8998 101.1 90.2002 104.3 90.2002ZM121.9 79.5V83.8999H116.5V79.5H114.5V90H116.5V85.5H121.9V90H123.8V79.5H121.9ZM128.7 88.3999V85.5H133.7V83.8999H128.7V81.2002H134.4V79.5H126.7V90H134.6V88.3999H128.7ZM144.6 90H146.7L141.9 79.5H140L135.3 90H137.3L138.3 87.6001H143.6L144.6 90ZM139 86.1001L140.9 81.5L142.9 86.1001H139ZM148 90H155.5V88.3999H150V79.5H148V90ZM158.2 90H160.1V81.2002H163.6V79.5H154.7V81.2002H158.2V90ZM172.4 79.5V83.7998H167V79.5H165.1V90H167V85.5H172.4V90H174.4V79.5H172.4ZM185.6 79.5H181.3V90H183.2V86.8999H185.6C188.4 86.8999 190.1 85.5002 190.1 83.2002C190.1 80.9002 188.4 79.5 185.6 79.5ZM185.5 85.2998H183.2V81.1001H185.5C187.2 81.1001 188.1 81.9002 188.1 83.2002C188.1 84.5002 187.2 85.2998 185.5 85.2998ZM199.4 90H201.4L196.7 79.5H194.8L190 90H192L193.1 87.5H198.3L199.4 90ZM193.8 86.1001L195.7 81.5L197.7 86.1001H193.8ZM211.8 90L209.4 86.6001C210.8 86.0001 211.6 84.8998 211.6 83.2998C211.6 80.8998 209.9 79.5 207.2 79.5H202.8V90H204.8V87H207.2C207.3 87 207.4 87 207.6 87L209.7 90H211.8ZM209.7 83.2998C209.7 84.5998 208.8 85.3999 207.1 85.3999H204.8V81.2002H207.1C208.8 81.2002 209.7 81.9998 209.7 83.2998ZM215.8 90H217.7V81.2002H221.2V79.5H212.3V81.2002H215.8V90ZM230.1 79.5V86.6001L224.3 79.5H222.7V90H224.6V82.8999L230.4 90H232V79.5H230.1ZM236.8 88.3999V85.5H241.9V83.8999H236.8V81.1001H242.5V79.5H234.9V90H242.7V88.3999H236.8ZM253.9 90L251.5 86.5C252.9 86 253.7 84.8002 253.7 83.2002C253.7 80.9002 252 79.5 249.3 79.5H244.9V90H246.9V86.8999H249.3C249.4 86.8999 249.5 86.8999 249.7 86.8999L251.8 90H253.9ZM251.8 83.2002C251.8 84.5002 250.9 85.2998 249.2 85.2998H246.9V81.1001H249.2C250.9 81.1001 251.8 81.9002 251.8 83.2002ZM259.2 90.1001C262 90.1001 263.4 88.7 263.4 87C263.4 83.2 257.2 84.5999 257.2 82.3999C257.2 81.5999 257.8 81 259.5 81C260.4 81 261.4 81.1998 262.4 81.7998L263 80.2998C262.1 79.6998 260.7 79.2998 259.5 79.2998C256.6 79.2998 255.3 80.8 255.3 82.5C255.3 86.4 261.5 84.9002 261.5 87.2002C261.5 87.9002 260.8 88.5 259.2 88.5C257.9 88.5 256.5 87.9999 255.7 87.3999L255 88.8999C255.9 89.5999 257.5 90.1001 259.2 90.1001Z" fill="white"/>
<path d="M14.4 83.7998C14.4 81.7998 14 80.2669 13.2 79.2002C12.4 78.0669 11.2667 77.5 9.79999 77.5C8.39999 77.5 7.26666 78.0669 6.39999 79.2002C5.59999 80.2669 5.20001 81.7998 5.20001 83.7998C5.20001 85.7998 5.59999 87.3667 6.39999 88.5C7.26666 89.6333 8.39999 90.2002 9.79999 90.2002C11.2667 90.2002 12.4 89.6333 13.2 88.5C14 87.3667 14.4 85.7998 14.4 83.7998ZM5.20001 69.2002V78.1001C5.80001 77.1001 6.53333 76.3666 7.39999 75.8999C8.26666 75.4332 9.3 75.2002 10.5 75.2002C12.5 75.2002 14.1 76.0001 15.3 77.6001C16.5667 79.1334 17.2 81.1998 17.2 83.7998C17.2 86.3998 16.5667 88.5001 15.3 90.1001C14.1 91.6334 12.5 92.3999 10.5 92.3999C9.3 92.3999 8.26666 92.1669 7.39999 91.7002C6.53333 91.2335 5.80001 90.5 5.20001 89.5V92H2.5V69.2002H5.20001ZM35.7 75.6001L28.5 93.5C27.7 95.5 26.9667 96.7665 26.3 97.2998C25.5667 97.8998 24.6 98.2002 23.4 98.2002H21.2V96H22.8C23.5333 96 24.1 95.8333 24.5 95.5C24.9 95.1 25.3667 94.2667 25.9 93L26.4 91.7002L19.7 75.6001H22.6L27.7 88.3999L32.8 75.6001H35.7Z" fill="white"/>
</svg>
