<svg width="196" height="67" viewBox="0 0 196 67" fill="none" xmlns="http://www.w3.org/2000/svg">
<path fill-rule="evenodd" clip-rule="evenodd" d="M8.6001 45.1C5.3001 46.4 3.6001 42 2.6001 38.6C0.400099 30.4 -0.0999073 16.1 0.500093 9.29996C0.500093 8.69996 1.0001 8.29996 1.6001 8.29996C2.2001 8.39996 2.6001 8.99996 2.6001 9.59996C1.8001 19 3.4001 40.2 7.1001 43C8.8001 44.3 8.90009 40.8 15.4001 6.89996C15.5001 6.29996 16.1001 5.89996 16.7001 5.99996C17.3001 6.09996 17.6001 6.69996 17.5001 7.29996L13.7001 27.2C10.6001 43.7 10.6001 44.4 8.6001 45.1ZM28.7001 40.1C28.1001 40.1 27.6001 39.7 27.6001 39.1C27.4668 36.9 27.4001 34.7333 27.4001 32.6C25.1001 35.9 21.9001 39.3 19.1001 37.7C16.0001 35.8 18.3001 29 19.7001 24C19.8001 23.4 20.4001 23.1 21.0001 23.2C21.6001 23.4 22.0001 24 21.8001 24.6C21.3001 26.4 18.6001 34.8 20.2001 35.8C21.6001 36.6 25.0001 32.7 27.4001 28.3C27.4001 22.5 27.8001 16.9 28.5001 11.5L18.9001 11.8C18.3001 11.8 17.8001 11.3 17.8001 10.7C17.8001 10.1 18.3001 9.59996 18.9001 9.59996L28.8001 9.29996C29.2001 6.69996 29.6334 4.19996 30.1001 1.79996C30.3001 1.19996 30.8001 0.799958 31.4001 0.899958C32.0001 0.999958 32.4001 1.59996 32.3001 2.19996C31.8001 4.49996 31.4001 6.89996 31.0001 9.29996L43.4001 8.99996C44.0001 8.99996 44.5001 9.49996 44.5001 10.1C44.5001 10.7 44.0001 11.2 43.4001 11.2L30.7001 11.5C29.6001 20.1 29.3001 29.1 29.8001 39C29.8001 39.6 29.3001 40.1 28.7001 40.1ZM22.0001 20.1C21.4001 19.9 21.0001 19.3 21.2001 18.8C21.4001 18.2 21.5001 17.7 21.6001 17.2C22.0001 15.8 24.1001 16.4 23.8001 17.7L23.3001 19.4C23.1001 19.9 22.5001 20.3 22.0001 20.1ZM33.9001 37.6C30.2001 35 34.9001 23.1 43.8001 23.1C44.4001 23.1 44.9001 23.6 44.9001 24.2C44.9001 24.8 44.4001 25.3 43.8001 25.3C35.3001 25.3 32.3001 38.8 36.9001 35.3C39.1001 33.6 41.3001 29.5 42.5001 27C42.8001 26.4 43.4001 26.2 44.0001 26.4C44.5001 26.7 44.8001 27.3 44.6001 27.9C44.2001 28.8 44.0001 30 43.8001 31.2C42.2001 40.7 48.2001 33.6 51.0001 28.3C51.0001 28.2333 51.0334 28.1666 51.1001 28.1V24C51.1001 23.4 51.6001 22.9 52.2001 22.9C52.8001 22.9 53.3001 23.4 53.3001 24V30.5C54.1001 28.6 55.1001 26.7 56.2001 24.9C57.3001 22.9 58.6001 22.9 59.3001 23.2C61.0001 23.6 61.0001 25.3 61.1001 28.7C62.0001 26.6 62.8001 25.6 63.8001 25.3C64.3001 25.2 64.8001 25.3 65.1001 25.6C66.9001 26.8 66.1001 32 68.7001 32.4C69.5001 32.6 71.1001 32.1 74.1001 28.2C74.1001 28.2 74.1334 28.2 74.2001 28.2C74.5001 26.8 74.9001 25.3 75.3001 24C75.5001 23.4 76.1001 23.1 76.7001 23.2C77.2001 23.4 77.6001 24 77.4001 24.6C76.9001 26.4 74.2001 34.8 75.8001 35.8C77.3001 36.6 80.6001 32.7 83.0001 28.3C83.0001 28.2333 83.0334 28.2 83.1001 28.2C83.2001 26.7 83.4001 25.3 83.6001 24C83.6001 23.4 84.2001 22.9 84.8001 23C85.4001 23.1 85.8001 23.7 85.7001 24.3C85.5001 25.8 85.3001 27.6 85.1001 29.8C86.6001 26.3 87.8001 23.3 90.2001 23.4C91.3001 23.5 92.3001 24.2 92.7001 25.3C93.8001 27.9 92.3001 31.2 94.2001 32.4C96.1001 33.6 99.2001 30.4 100.5 28.2C100.8 27.7 101.4 27.5 102 27.9C102.4 28.1 102.7 28.8 102.3 29.3C100.4 32.7 96.3001 36.3 93.0001 34.3C89.9001 32.3 91.6001 28.1 90.7001 26.2C89.6001 23.6 87.0001 30.6 84.5001 37.3C84.3001 37.9 83.8001 38.1 83.3001 38C82.8001 37.9 82.4001 37.4 82.4001 36.9C82.5001 35.7 82.6001 34.4 82.7001 33C80.4001 36.2 77.4001 39.3 74.8001 37.7C73.3001 36.8 73.0001 34.8 73.3001 32.4C71.8001 33.8 70.1001 34.8 68.4001 34.6C64.8001 34 64.5001 29.3 64.1001 27.7C62.9001 29.3 61.6001 34 61.3001 35.6C61.2001 36.1 60.7001 36.5 60.1001 36.4C59.6001 36.4 59.2001 35.9 59.1001 35.4C58.9001 29.3 58.9001 26.1 58.6001 25.2C57.8001 25.7 54.7001 31.6 53.2001 37.3C53.1001 37.8 52.7001 38.1 52.2001 38.1C51.6001 38.1 51.1001 37.6 51.1001 37V32.4C45.4001 40.9 40.9001 38.6 41.2001 33.7C39.4001 36.3 36.5001 39.3 33.9001 37.6ZM77.5001 20.1C76.9001 19.9 76.6001 19.3 76.8001 18.8C76.9001 18.2 77.1001 17.7 77.2001 17.2C77.6001 15.8 79.7001 16.4 79.3001 17.7L78.8001 19.4C78.7001 19.9 78.1001 20.3 77.5001 20.1ZM108.6 45.3C104.6 44.7 101.7 41.2 103.7 37.2C105.2 34.2 108.5 31.9 111.6 30.5C110 28.2 108 26.1 106.2 23.8C102.5 19.1 100.8 12.8 104.9 8.49996C109.6 3.69996 117.4 6.89996 118.7 13.6C118.9 14.3 118.5 14.8 117.9 15C117.3 15.1 116.7 14.7 116.6 14.1C115.6 9.09996 110 6.39996 106.5 9.99996C103.1 13.5 105 18.8 107.9 22.4C109.8 24.8 112 27.1 113.7 29.8C116.3 29 119.7 28.4 123.8 28.7C123.867 28.7 123.933 28.7333 124 28.8C125.4 25.3 128.5 22.3 131.3 23.2C132.8 23.6 133.8 25.3 133.1 26.7C132.9 27.3 132.3 27.5 131.7 27.3C131.1 27 130.9 26.4 131.1 25.8C131.1 25.8 131.2 25.8 131.1 25.7C130 23.3 124.3 29.5 125.4 33.8C126.2 36.7 133.4 38.1 139.3 28.3C139.433 26.7666 139.5 25.3 139.5 23.9C139.5 23.3 140 22.8 140.6 22.8C141.2 22.8 141.7 23.3 141.7 23.9C141.7 25.5 141.6 27.2 141.5 28.8C143.3 25.8 146.8 22 150.2 22.7C150.8 22.8 151.2 23.4 151 24C150.9 24.6 150.3 25 149.8 24.9C146.9 24.3 141.3 30.8 141 36.6C141 37.1 140.5 37.6 139.9 37.6C139.3 37.6 138.8 37.1 138.8 36.5C138.8 35.1666 138.867 33.8333 139 32.5C135.6 36.7 132.1 38 129.2 38C123.8 38 122.5 34.5 123.3 30.9C119.9 30.7 117 31.1 114.8 31.7C118.2 38.9 115.6 46.3 108.6 45.3ZM112 42.6C115.1 40.8 114.3 35.7 112.7 32.4C110 33.5 107 35.6 105.7 38.2C103.8 42.1 109 44.2 112 42.6ZM155.4 20.1C154.8 19.9 154.5 19.3 154.6 18.8C154.8 18.2 155 17.7 155.1 17.2C155.5 15.8 157.6 16.4 157.2 17.7L156.7 19.4C156.6 19.9 156 20.3 155.4 20.1ZM152.6 37.7C149.5 35.8 151.8 29 153.2 24C153.3 23.4 153.9 23.1 154.5 23.2C155.1 23.4 155.5 24 155.3 24.6C154.8 26.4 152.1 34.8 153.7 35.8C155.1 36.6 158.5 32.7 160.9 28.3C161 28 161.3 27.8 161.6 27.8C161.8 27.5333 162.033 27.3 162.3 27.1C162.4 25.3 162.4 23.5 162.6 21.7C162.6 21.1 163.1 20.6 163.7 20.6C164.3 20.6 164.7 21.2 164.7 21.8L164.6 25.2C166.2 24.2 168.1 23.3 170 23C177.4 22.2 175.6 32 169 36.5C167.5 37.5 165.8 38.2 164.1 38C163.9 45.4 163.8 41.6 163.9 48.9C163.9 49.5 163.4 50 162.8 50C162.2 50 161.7 49.6 161.7 49C161.6 39.2 161.8 40.6 162.2 30.5L162 30.8C162 30.8666 161.967 30.9 161.9 30.9C159.6 34.7 155.8 39.6 152.6 37.7ZM164.1 35.7C168.3 36.8 174.5 27.8 172.1 25.6C171 24.5 167.4 25.6 164.4 28.1C164.3 30.6 164.2 33.2 164.1 35.7ZM179.6 38.3C179 38.3 178.5 37.9 178.5 37.3C178 27.5 178.4 20.2 179.5 11.5L169.9 11.8C169.3 11.8 168.8 11.3 168.8 10.7C168.7 10.1 169.2 9.59996 169.8 9.59996L179.8 9.29996C180.2 6.69996 180.633 4.19996 181.1 1.79996C181.3 1.19996 181.8 0.799958 182.4 0.899958C183 0.999958 183.4 1.59996 183.2 2.19996C182.8 4.49996 182.4 6.89996 182 9.29996L194.3 8.99996C195 8.99996 195.5 9.49996 195.5 10.1C195.5 10.7 195 11.2 194.4 11.2L181.7 11.5C180.6 20.1 180.2 27.4 180.7 37.2C180.7 37.8 180.3 38.3 179.7 38.3H179.6Z" fill="#1B5586"/>
<path d="M31.4001 53.9999V56.8999H27.7002V53.9999H26.4001V60.9999H27.7002V57.9999H31.4001V60.9999H32.7002V53.9999H31.4001ZM37.8001 61.0999C40.0001 61.0999 41.6002 59.5999 41.6002 57.4999C41.6002 55.3999 40.0001 53.8999 37.8001 53.8999C35.6001 53.8999 34.0002 55.3999 34.0002 57.4999C34.0002 59.5999 35.6001 61.0999 37.8001 61.0999ZM37.8001 59.9999C36.4001 59.9999 35.3001 58.8999 35.3001 57.4999C35.3001 56.0999 36.4001 54.9999 37.8001 54.9999C39.2001 54.9999 40.3001 56.0999 40.3001 57.4999C40.3001 58.8999 39.2001 59.9999 37.8001 59.9999ZM43.0002 60.9999H47.9001V59.8999H44.3001V53.9999H43.0002V60.9999ZM48.9001 60.9999H50.2002V53.9999H48.9001V60.9999ZM54.3001 61.0999C56.2001 61.0999 57.1002 60.0999 57.1002 58.9999C57.1002 56.4999 53.0002 57.3999 53.0002 55.8999C53.0002 55.3999 53.4002 54.9999 54.5002 54.9999C55.1002 54.9999 55.8001 55.1999 56.4001 55.4999L56.8001 54.4999C56.2001 54.0999 55.4002 53.8999 54.5002 53.8999C52.6002 53.8999 51.7002 54.8999 51.7002 55.9999C51.7002 58.5999 55.9001 57.5999 55.9001 59.0999C55.9001 59.5999 55.4001 59.9999 54.3001 59.9999C53.4001 59.9999 52.6002 59.6999 52.0002 59.2999L51.5002 60.2999C52.1002 60.7999 53.2001 61.0999 54.3001 61.0999ZM59.7002 60.9999H61.0002V55.0999H63.4001V53.9999H57.4001V55.0999H59.7002V60.9999ZM64.3001 60.9999H65.6002V53.9999H64.3001V60.9999ZM70.8001 61.0999C71.9001 61.0999 72.9002 60.6999 73.6002 59.8999L72.7002 59.0999C72.2002 59.6999 71.6001 59.9999 70.8001 59.9999C69.4001 59.9999 68.3001 58.8999 68.3001 57.4999C68.3001 56.0999 69.4001 54.9999 70.8001 54.9999C71.6001 54.9999 72.2002 55.2999 72.7002 55.8999L73.6002 55.0999C72.9002 54.2999 71.9001 53.8999 70.8001 53.8999C68.6001 53.8999 67.0002 55.3999 67.0002 57.4999C67.0002 59.5999 68.6001 61.0999 70.8001 61.0999ZM82.5002 53.9999V56.8999H78.9001V53.9999H77.6002V60.9999H78.9001V57.9999H82.5002V60.9999H83.8001V53.9999H82.5002ZM87.0002 59.8999V57.9999H90.3001V56.8999H87.0002V55.0999H90.8001V53.9999H85.7002V60.9999H90.9001V59.8999H87.0002ZM97.7002 60.9999H99.0002L95.9001 53.9999H94.6002L91.4001 60.9999H92.8001L93.5002 59.3999H97.0002L97.7002 60.9999ZM93.9001 58.2999L95.2002 55.2999L96.5002 58.2999H93.9001ZM99.9001 60.9999H104.9V59.8999H101.2V53.9999H99.9001V60.9999ZM106.7 60.9999H108V55.0999H110.3V53.9999H104.4V55.0999H106.7V60.9999ZM116.2 53.9999V56.8999H112.6V53.9999H111.3V60.9999H112.6V57.9999H116.2V60.9999H117.5V53.9999H116.2ZM125 53.9999H122.2V60.9999H123.5V58.9999H125C126.9 58.9999 128 57.9999 128 56.4999C128 54.8999 126.9 53.9999 125 53.9999ZM125 57.8999H123.5V55.0999H125C126.1 55.0999 126.7 55.5999 126.7 56.4999C126.7 57.2999 126.1 57.8999 125 57.8999ZM134.2 60.9999H135.6L132.4 53.9999H131.1L128 60.9999H129.3L130 59.3999H133.5L134.2 60.9999ZM130.4 58.2999L131.8 55.2999L133.1 58.2999H130.4ZM142.4 60.9999L140.8 58.6999C141.7 58.2999 142.2 57.4999 142.2 56.3999C142.2 54.8999 141.1 53.9999 139.3 53.9999H136.4V60.9999H137.7V58.8999H139.3C139.4 58.8999 139.4 58.8999 139.5 58.8999L141 60.9999H142.4ZM140.9 56.3999C140.9 57.2999 140.3 57.7999 139.2 57.7999H137.7V55.0999H139.2C140.3 55.0999 140.9 55.5999 140.9 56.3999ZM145 60.9999H146.3V55.0999H148.6V53.9999H142.7V55.0999H145V60.9999ZM154.5 53.9999V58.6999L150.7 53.9999H149.6V60.9999H150.9V56.1999L154.8 60.9999H155.8V53.9999H154.5ZM159 59.8999V57.8999H162.4V56.8999H159V54.9999H162.8V53.9999H157.7V60.9999H163V59.8999H159ZM170.3 60.9999L168.7 58.6999C169.7 58.2999 170.2 57.4999 170.2 56.3999C170.2 54.8999 169.1 53.9999 167.2 53.9999H164.4V60.9999H165.7V58.8999H167.2C167.3 58.8999 167.4 58.8999 167.5 58.8999L168.9 60.9999H170.3ZM168.9 56.3999C168.9 57.2999 168.3 57.7999 167.2 57.7999H165.7V55.0999H167.2C168.3 55.0999 168.9 55.5999 168.9 56.3999ZM173.8 61.0999C175.8 61.0999 176.7 60.0999 176.7 58.9999C176.7 56.3999 172.5 57.3999 172.5 55.8999C172.5 55.3999 173 54.8999 174 54.8999C174.6 54.8999 175.3 55.0999 176 55.4999L176.4 54.4999C175.8 54.0999 174.9 53.8999 174 53.8999C172.1 53.8999 171.2 54.7999 171.2 55.8999C171.2 58.4999 175.4 57.5999 175.4 59.0999C175.4 59.5999 174.9 59.9999 173.8 59.9999C173 59.9999 172.1 59.6999 171.5 59.1999L171.1 60.1999C171.7 60.6999 172.7 61.0999 173.8 61.0999Z" fill="#1B5586"/>
<path d="M13.6002 56.4999C13.6002 55.2333 13.3335 54.1999 12.8002 53.3999C12.2668 52.6666 11.5002 52.2999 10.5002 52.2999C9.56685 52.2999 8.8335 52.6666 8.30017 53.3999C7.76684 54.1999 7.50018 55.2333 7.50018 56.4999C7.50018 57.8333 7.76684 58.8999 8.30017 59.6999C8.8335 60.4333 9.56685 60.7999 10.5002 60.7999C11.5002 60.7999 12.2668 60.4333 12.8002 59.6999C13.3335 58.8999 13.6002 57.8333 13.6002 56.4999ZM7.50018 46.7999V52.6999C7.83352 52.0333 8.30018 51.5666 8.90018 51.2999C9.50018 50.9666 10.2002 50.7999 11.0002 50.7999C12.3335 50.7999 13.4002 51.3333 14.2002 52.3999C15.0669 53.4666 15.5002 54.8333 15.5002 56.4999C15.5002 58.2333 15.0669 59.6333 14.2002 60.6999C13.4002 61.7666 12.3335 62.2999 11.0002 62.2999C10.2002 62.2999 9.50018 62.1333 8.90018 61.7999C8.30018 61.4666 7.83352 60.9999 7.50018 60.3999V61.9999H5.7002V46.7999H7.50018ZM27.8002 51.0999L23.0002 62.9999C22.4668 64.3333 21.9668 65.1999 21.5002 65.5999C21.0335 65.9999 20.4002 66.1999 19.6002 66.1999H18.1002V64.6999H19.2002C19.6669 64.6999 20.0335 64.5666 20.3002 64.2999C20.5668 64.0999 20.8669 63.5333 21.2002 62.5999L21.6002 61.7999L17.1002 51.0999H19.0002L22.5002 59.5999L25.9002 51.0999H27.8002Z" fill="#1B5586"/>
</svg>
