<svg width="51" height="17" viewBox="0 0 51 17" fill="none" xmlns="http://www.w3.org/2000/svg">
<path fill-rule="evenodd" clip-rule="evenodd" d="M14.8 0.299805H19.2L12.7 16.1001H8.40002L5.09998 3.5C7.49998 4.4 9.60002 6.5999 10.4 8.8999L10.8 11.1001L14.8 0.299805ZM18.3 16.1001L20.8 0.200195H24.9L22.4 16.1001H18.3ZM33.1 6.6001C35.5 7.7001 36.6 9.0999 36.6 10.8999C36.5 14.1999 33.7 16.2998 29.4 16.2998C27.6 16.2998 25.8 15.8999 24.9 15.3999L25.5 11.8999L26 12.2002C27.3 12.7002 28.2 13 29.8 13C31 13 32.3 12.4999 32.3 11.3999C32.3 10.6999 31.8 10.3 30.2 9.5C28.6 8.7 26.6 7.5002 26.6 5.2002C26.6 2.1002 29.5 0 33.5 0C35.1 0 36.3 0.300098 37.2 0.600098L36.6 4.1001L36.2 3.8999C35.5 3.5999 34.5 3.1998 33.2 3.2998C31.6 3.2998 30.8 4.0001 30.8 4.6001C30.8 5.4001 31.7 5.9001 33.1 6.6001ZM47.6 0.299805L50.9 16.1001H47.1C47.1 16.1001 46.8 14.2002 46.6 13.7002C46 13.7002 41.9 13.7002 41.4 13.7002C41.3 14.1002 40.6 16.1001 40.6 16.1001H36.3L42.3 1.6001C42.8 0.500098 43.5 0.299805 44.5 0.299805H47.6ZM42.6 10.3999C43.4 10.3999 45.3 10.3999 46 10.3999C45.8 9.6999 45 5.8999 45 5.8999L44.8 4.5C44.6 5.1 44.2 6.1 44.2 6C44.2 6 42.9 9.4999 42.6 10.3999ZM10.4 8.7998C8.70002 4.1998 5 1.7001 0.5 0.600098V0.200195H7.09998C7.99998 0.300195 8.7 0.600098 9 1.6001L10.4 8.7998Z" fill="white"/>
</svg>
