<svg width="51" height="10" viewBox="0 0 51 10" fill="none" xmlns="http://www.w3.org/2000/svg">
<path fill-rule="evenodd" clip-rule="evenodd" d="M27 0.899902C29.4 0.899902 31.3 2.8001 31.3 5.1001C31.3 7.5001 29.4 9.2998 27 9.2998C24.6 9.2998 22.8 7.5001 22.8 5.1001C22.8 2.8001 24.7 0.899902 27 0.899902ZM2.80005 1.1001C5.30005 1.1001 7.09998 2.7001 7.09998 5.1001C7.09998 6.3001 6.59998 7.4002 5.59998 8.2002C4.89998 8.8002 4.00005 9.1001 2.80005 9.1001H0.5V1.1001H2.80005ZM4.59998 7.1001C5.19998 6.6001 5.5 5.9001 5.5 5.1001C5.5 4.3001 5.19998 3.6001 4.59998 3.1001C4.09998 2.6001 3.5 2.3999 2.5 2.3999H2.09998V7.7002H2.5C3.5 7.7002 4.09998 7.6001 4.59998 7.1001ZM7.80005 9.1001V1.1001H9.40002V9.1001H7.80005ZM13.2 4.2002C14.9 4.8002 15.5 5.4002 15.5 6.7002C15.5 8.2002 14.3 9.2998 12.7 9.2998C11.5 9.2998 10.6 8.7998 9.90002 7.7998L10.9 6.7998C11.3 7.4998 11.9 7.8999 12.6 7.8999C13.3 7.8999 13.9 7.4002 13.9 6.7002C13.9 6.36686 13.7334 6.0999 13.4 5.8999C13.2 5.7999 12.9 5.6999 12.3 5.3999C10.8 4.8999 10.3 4.3002 10.3 3.2002C10.3 1.9002 11.4 0.899902 12.8 0.899902C13.7334 0.899902 14.5333 1.1998 15.2 1.7998L14.4 2.8999C14 2.3999 13.6 2.2998 13.1 2.2998C12.4 2.2998 11.9 2.6001 11.9 3.1001C11.9 3.6001 12.2 3.8002 13.2 4.2002ZM16 5.1001C16 2.8001 17.9 0.899902 20.2 0.899902C20.9 0.899902 21.5 0.999902 22.1 1.3999V3.2002C21.5 2.6002 20.9 2.2998 20.2 2.2998C18.7 2.2998 17.6 3.5001 17.6 5.1001C17.6 6.7001 18.7 7.8999 20.3 7.8999C21 7.8999 21.5 7.6 22.1 7V8.7998C21.4 9.1998 20.9 9.2998 20.2 9.2998C17.8 9.2998 16 7.5001 16 5.1001ZM34.8 6.5L37 1.1001H38.7L35.2 9.2998H34.4L31 1.1001H32.7L34.8 6.5ZM39.3 9.1001V1.1001H43.8V2.3999H40.9V4.2002H43.6V5.6001H40.9V7.7998H43.8V9.1001H39.3ZM49.9 3.3999C49.9 4.6999 49.2 5.5002 48 5.7002L50.6 9.1001H48.6L46.5 5.8999H46.3V9.1001H44.7V1.1001H47C48.8 1.1001 49.9 1.8999 49.9 3.3999ZM46.7 4.7998C47.7 4.7998 48.3 4.3 48.3 3.5C48.3 2.8 47.7 2.2998 46.8 2.2998H46.3V4.7998H46.7Z" fill="white"/>
</svg>
