<svg width="51" height="18" viewBox="0 0 51 18" fill="none" xmlns="http://www.w3.org/2000/svg">
<path fill-rule="evenodd" clip-rule="evenodd" d="M49.8999 10L50.0999 16.5C49.6999 16.7 47.7999 17.7002 47.0999 17.7002H43.6998V17.2002C43.2998 17.5002 42.5999 17.7002 41.8999 17.7002H31.1998V15.8999C31.1998 15.6999 31.0999 15.7002 30.8999 15.7002H30.6998V17.7002H27.1998V15.6001C26.5998 15.9001 25.8999 15.8999 25.2999 15.8999H24.9999V17.7002H20.5999L19.5999 16.5L18.4999 17.7002H11.4999V10H18.5999L19.5999 11.2002L20.6998 10H25.4999C25.9999 10 26.8999 10.0999 27.2999 10.3999V10H31.5999C31.9999 10 32.7999 10.0999 33.3999 10.3999V10H39.6998V10.3999C40.0998 10.0999 40.7999 10 41.3999 10H44.8999V10.3999C45.2999 10.1999 45.8999 10 46.5999 10H49.8999ZM25.3999 14.7002C26.5999 14.7002 27.6998 14.3999 27.6998 12.8999C27.6998 11.3999 26.4999 11.1001 25.4999 11.1001H21.2999L19.5999 12.8999L17.9999 11.1001H12.6998V16.6001H17.8999L19.5999 14.7998L21.1998 16.6001H23.7999V14.7002H25.3999ZM33.2999 14.5C33.1999 14.3 32.9999 14.1 32.5999 14C32.9999 13.9 33.5999 13.4001 33.5999 12.6001C33.5999 11.9001 33.2999 11.5998 32.8999 11.2998C32.4999 11.0998 31.9999 11.1001 31.2999 11.1001H28.2999V16.6001H29.5999V14.6001H30.9999C31.4999 14.6001 31.7999 14.5998 31.9999 14.7998C32.1999 15.0998 32.1998 15.4999 32.1998 15.8999V16.6001H33.4999V15.5C33.4999 15 33.4999 14.8 33.2999 14.5ZM38.6998 12.2002V11.1001H34.2999V16.6001H38.6998V15.3999H35.5999V14.2998H38.5999V13.2002H35.5999V12.2002H38.6998ZM42.0999 16.6001C43.3999 16.6001 44.0999 15.9998 44.0999 14.7998C44.0999 14.2998 43.9999 13.9002 43.7999 13.7002C43.3999 13.4002 42.9998 13.2002 42.1998 13.2002H41.4999C41.2999 13.2002 41.1332 13.1668 40.9999 13.1001C40.7999 13.1001 40.6998 12.9998 40.6998 12.7998C40.6998 12.5998 40.7999 12.4998 40.8999 12.2998C40.9999 12.1998 41.1999 12.2002 41.3999 12.2002H43.8999V11.1001H41.1998C39.7998 11.1001 39.2999 11.9002 39.2999 12.7002C39.2999 14.5002 40.8999 14.3999 42.0999 14.3999C42.2999 14.3999 42.4665 14.4333 42.5999 14.5C42.5999 14.6 42.6998 14.7999 42.6998 14.8999C42.6998 15.0999 42.5999 15.1998 42.5999 15.2998C42.3999 15.3998 42.2999 15.3999 42.0999 15.3999H39.4999V16.6001H42.0999ZM47.1998 16.6001C48.4998 16.6001 49.2999 15.9998 49.2999 14.7998C49.2999 14.2998 49.0999 13.9002 48.8999 13.7002C48.5999 13.4002 48.0999 13.2002 47.3999 13.2002H46.5999C46.4665 13.2002 46.2999 13.1668 46.0999 13.1001C45.9999 13.1001 45.8999 12.9998 45.8999 12.7998C45.8999 12.5998 45.8999 12.4998 46.0999 12.2998C46.1999 12.1998 46.2999 12.2002 46.5999 12.2002H48.9999V11.1001H46.3999C44.9999 11.1001 44.4999 11.9002 44.4999 12.7002C44.4999 14.5002 45.9998 14.3999 47.1998 14.3999C47.4665 14.3999 47.6332 14.4333 47.6998 14.5C47.7998 14.6 47.8999 14.7999 47.8999 14.8999C47.8999 15.0999 47.7998 15.1998 47.6998 15.2998C47.6332 15.3665 47.4665 15.3999 47.1998 15.3999H44.5999V16.6001H47.1998ZM31.7999 12.2998C31.9999 12.4331 32.0999 12.5998 32.0999 12.7998C32.0999 13.0665 31.9999 13.2666 31.7999 13.3999C31.5999 13.3999 31.4998 13.3999 31.1998 13.3999L29.5999 13.5V12.2002H31.1998C31.4998 12.2002 31.6999 12.1998 31.7999 12.2998ZM13.6998 8.2002H11.3999L10.9999 7.2998V8.2002H6.49988L6.09985 7H4.8999L4.3999 8.2002H0.399902L2.19983 4.2002L3.69983 0.5H7.19983L7.59985 1.3999V0.5H11.5999L12.4999 2.5L13.3999 0.5H26.1998C26.7998 0.5 27.2998 0.6 27.6998 1V0.5H31.1998V1C31.6998 0.6 32.4999 0.5 33.2999 0.5H38.3999L38.8999 1.3999V0.5H42.5999L43.1998 1.3999V0.5H46.7999V8.2002H43.0999L42.3999 7V8.2002H37.7999L37.2999 7H36.1998L35.6998 8.2002H33.2999C32.2999 8.2002 31.5998 8.0002 31.1998 7.7002V8.2002H25.4999V6.5C25.4999 6.2 25.3999 6.2002 25.2999 6.2002H25.0999V8.2002H14.0999V7.2002L13.6998 8.2002ZM31.3999 2.2998C30.7999 2.8998 30.6998 3.5999 30.6998 4.3999C30.6998 5.3999 30.8999 6 31.3999 6.5C31.7999 7 32.6999 7.1001 33.2999 7.1001H34.7999L35.2999 5.8999H38.0999L38.5999 7.1001H41.2999V3L43.6998 7.1001H45.5999V1.6001H44.2999V5.3999L41.9999 1.6001H39.8999V6.7998L37.6998 1.6001H35.7999L33.8999 6H33.2999C32.8999 6 32.5999 5.9002 32.3999 5.7002C32.1332 5.43353 31.9999 4.9999 31.9999 4.3999C31.9999 3.7999 32.1332 3.36676 32.3999 3.1001C32.6999 2.9001 32.8999 2.7998 33.3999 2.7998H34.6998V1.6001H33.3999C32.4999 1.6001 31.7999 1.7998 31.3999 2.2998ZM22.3999 16.1001L20.3999 13.7998L22.3999 11.7002V16.1001ZM25.3999 12.2002C25.8999 12.2002 26.1998 12.3999 26.1998 12.8999C26.1998 13.2999 25.8999 13.6001 25.3999 13.6001H23.6998V12.2002H25.3999ZM11.8999 7.1001H12.9999L14.9999 2.7998V7.1001H16.2999V1.6001H14.0999L12.4999 5.2998L10.7999 1.6001H8.69983V6.7998L6.3999 1.6001H4.49988L2.09985 7.1001H3.59985L3.99988 5.8999H6.79993L7.29993 7.1001H9.99988V2.7998L11.8999 7.1001ZM13.8999 12.2002H17.1998L18.5999 13.7998L17.0999 15.3999H13.8999V14.2998H16.7999V13.2002H13.8999V12.2002ZM22.5999 1.6001V7.1001H23.8999V5.1001H25.2999C25.7999 5.1001 26.0999 5.1998 26.2999 5.2998C26.4999 5.5998 26.4999 6.0999 26.4999 6.3999V7.1001H27.7999V6C27.7999 5.6 27.7999 5.3 27.5999 5C27.4999 4.9 27.1999 4.7001 26.8999 4.6001C27.2999 4.4001 27.8999 4.0001 27.8999 3.1001C27.8999 2.5001 27.5998 2.0999 27.1998 1.8999C26.7998 1.5999 26.2999 1.6001 25.5999 1.6001H22.5999ZM36.6998 2.6001L37.5999 4.7002H35.7999L36.6998 2.6001ZM28.5999 1.7002V7.2002H29.9999V1.7002H28.5999ZM26.0999 3.8999C25.8999 3.9999 25.6999 4 25.3999 4H23.7999V2.7998H25.3999C25.6999 2.7998 25.8999 2.7999 26.0999 2.8999C26.2332 3.03324 26.2999 3.1999 26.2999 3.3999C26.2999 3.6999 26.2999 3.8999 26.0999 3.8999ZM17.1998 1.7002V7.2002H21.5999V6.1001H18.4999V4.8999H21.5999V3.7998H18.4999V2.7998H21.5999V1.7002H17.1998ZM4.3999 4.7998L5.3999 2.6001L6.29993 4.7998H4.3999Z" fill="white"/>
</svg>
