<svg width="51" height="30" viewBox="0 0 51 30" fill="none" xmlns="http://www.w3.org/2000/svg">
<path fill-rule="evenodd" clip-rule="evenodd" d="M35.7 0.299805C43.9 0.299805 50.6 6.9001 50.6 15.1001C50.6 23.3001 43.9 29.8999 35.7 29.8999C32.2 29.8999 29 28.7001 26.4 26.6001C28.4 24.7001 29.8 22.4002 30.6 19.7002H29.4C28.6 22.1002 27.3 24.1998 25.5 25.7998C23.8 24.1998 22.4 22.1002 21.7 19.7002H20.4C21.2 22.4002 22.7 24.7001 24.6 26.6001C22.1 28.6001 18.8 29.8999 15.3 29.8999C7.10005 29.8999 0.5 23.3001 0.5 15.1001C0.5 6.9001 7.10005 0.299805 15.3 0.299805C18.8 0.299805 22.1 1.6001 24.6 3.6001C22.7 5.5001 21.2 7.9 20.4 10.5H21.7C22.4 8.1 23.8 6.0999 25.5 4.3999C27.3 6.0999 28.6 8.1 29.4 10.5H30.6C29.8 7.8 28.4 5.5001 26.4 3.6001C29 1.5001 32.2 0.299805 35.7 0.299805ZM38.9 17.8999L39.3 15.7998C39.4 15.0998 39.4 14.9001 39.4 14.6001C39.4 13.4001 38.7 12.7998 37.3 12.7998C36.7 12.7998 36.2 12.9001 35.4 13.1001L35.2 14.5H35.4L35.6 14.3999C35.9 14.2999 36.4 14.2002 36.9 14.2002C37.6 14.2002 37.9 14.3998 37.9 14.7998C37.9 14.8998 37.9 15.0002 37.8 15.2002C37.6 15.1335 37.4 15.1001 37.2 15.1001C35.4 15.1001 34.4 16 34.4 17.5C34.4 18.4 35 19.1001 35.9 19.1001C36.6 19.1001 37.1 18.8999 37.5 18.3999V19H38.8V18.8999V18.6001L38.9 18.2998V17.8999ZM24.3 17.7002C23.3667 17.7002 22.9 17.3669 22.9 16.7002C22.9 16.6335 22.9 16.5667 22.9 16.5H26C26.2 15.9 26.2 15.4 26.2 15C26.2 13.6 25.4 12.7998 24.1 12.7998C22.5 12.7998 21.3 14.2999 21.3 16.3999C21.3 18.1999 22.3 19.1001 24 19.1001C24.6 19.1001 25.1 18.9999 25.7 18.8999L25.9 17.2998C25.4 17.5998 24.9 17.7002 24.3 17.7002ZM45.7 19H47.1L48.4 11.5H46.8L46.4 13.7002C46 13.1002 45.6 12.7998 44.9 12.7998C43.5 12.7998 42.3 14.5001 42.3 16.6001C42.3 18.1001 43.1 19.1001 44.3 19.1001C44.8 19.1001 45.3 18.8999 45.7 18.3999V19ZM7.19995 19H8.80005L10 11.6001H7.5L6 16.2002L5.90002 11.6001H3.69995L2.40002 19H3.90002L4.90002 13.2998L5 19H6.09998L8.09998 13.2998L7.19995 19ZM13.9 18.2998L14 17.8999L14.3 15.7998C14.4 15.0998 14.5 14.9001 14.5 14.6001C14.5 13.4001 13.7 12.7998 12.4 12.7998C11.8 12.7998 11.3 12.9001 10.5 13.1001L10.2 14.5L10.4 14.3999L10.6 14.2998C11 14.1998 11.5 14.2002 11.9 14.2002C12.7 14.2002 12.9 14.2998 12.9 14.7998C12.9 14.8998 12.9 14.9001 12.9 15.1001C12.6334 15.1001 12.4 15.1001 12.2 15.1001C10.5 15.1001 9.5 15.8999 9.5 17.3999C9.5 18.3999 10 19.1001 10.9 19.1001C11.6 19.1001 12.2 18.7998 12.6 18.2998L12.5 19H13.9V18.7998V18.6001V18.2998ZM17.2 15.3999C16.5 15.0999 16.4 15.0002 16.4 14.7002C16.4 14.3669 16.6666 14.2002 17.2 14.2002C17.5 14.2002 17.9 14.2998 18.3 14.2998L18.5 12.8999C18.1 12.7999 17.5 12.7998 17.2 12.7998C15.4 12.7998 14.8 13.6998 14.8 14.7998C14.8 15.5998 15.1 16.1 16 16.5C16.6 16.8 16.7 16.9002 16.7 17.2002C16.7 17.6002 16.5 17.7002 15.8 17.7002C15.3 17.7002 14.9 17.7 14.4 17.5L14.2 18.8999H14.3L14.5 19C14.6333 19 14.8 19 15 19C15.3 19.1 15.6 19.1001 15.8 19.1001C17.5 19.1001 18.3 18.4001 18.3 17.1001C18.3 16.2001 17.9 15.6999 17.2 15.3999ZM20.6 17.6001C20.3 17.6001 20.1 17.5002 20.1 17.2002C20.1 17.1335 20.1 17.0332 20.1 16.8999L20.6 14.3999H21.4L21.6 12.8999H20.8L20.9 12H19.4L18.7 16.1001L18.6 16.6001L18.5 17.2002C18.5 17.4002 18.5 17.5998 18.5 17.7998C18.5 18.5998 18.9 19.1001 19.7 19.1001C20.1 19.1001 20.4 18.9999 20.9 18.8999L21.1 17.6001C20.9666 17.6001 20.8 17.6001 20.6 17.6001ZM24.8 14.8999C24.8 14.9666 24.8 15.0669 24.8 15.2002H23.1C23.2 14.5002 23.6 14.1001 24.1 14.1001C24.6 14.1001 24.8 14.3999 24.8 14.8999ZM29.4 14.6001H29.5C29.6 13.9001 29.8 13.3999 30.1 12.8999H30H29.9C29.3 12.8999 29 13.0998 28.5 13.7998L28.7 12.8999H27.3L26.3 19H27.9C28.4 15.3 28.6 14.6001 29.4 14.6001ZM34 18.8999C34 18.8999 33.9667 18.8999 33.9 18.8999H34ZM34.3 17.2002C33.8334 17.4669 33.4 17.6001 33 17.6001C32.1 17.6001 31.5 16.8998 31.5 15.7998C31.5 14.0998 32.3 13 33.5 13C34 13 34.4 13.0999 34.9 13.3999L35.2 11.7998C35.1 11.6998 35 11.7001 34.8 11.6001L34.2 11.3999C34 11.3999 33.7334 11.3999 33.4 11.3999C31.3 11.3999 29.9 13.1999 29.9 15.8999C29.9 17.8999 30.9 19.1001 32.7 19.1001C33.1 19.1001 33.5 18.9999 34 18.8999L34.3 17.2002ZM36.1 17.2002C36.1 16.5335 36.5334 16.2002 37.4 16.2002C37.5 16.2002 37.6 16.2998 37.8 16.2998C37.8 17.1998 37.3 17.7998 36.6 17.7998C36.3 17.7998 36.1 17.5002 36.1 17.2002ZM41 19C41.6 15.3 41.8 14.6001 42.5 14.6001H42.6C42.8 13.9001 43 13.3999 43.2 12.8999H43C42.5 12.8999 42.2 13.0998 41.7 13.7998L41.9 12.8999H40.4L39.5 19H41ZM45.4 14.2998C45.9334 14.2998 46.2 14.7 46.2 15.5C46.2 16.7 45.7 17.5 45 17.5C44.4667 17.5 44.2 17.0998 44.2 16.2998C44.2 15.0998 44.7 14.2998 45.4 14.2998ZM11.1 17.2002C11.1 16.5335 11.5334 16.2002 12.4 16.2002C12.6 16.2002 12.6 16.2998 12.8 16.2998C12.8 17.1998 12.3 17.7998 11.6 17.7998C11.3 17.7998 11.1 17.5002 11.1 17.2002Z" fill="white"/>
</svg>
