<svg width="51" height="15" viewBox="0 0 51 15" fill="none" xmlns="http://www.w3.org/2000/svg">
<path fill-rule="evenodd" clip-rule="evenodd" d="M41.7999 2.2998C43.7999 2.1998 45.8999 2.8001 45.3999 5.1001L44.1998 10.6001H41.3999L41.5999 9.7998C40.0999 11.2998 36.2999 11.3999 36.8999 7.8999C37.3999 5.8999 39.4999 5.2998 42.5999 5.2998C42.7999 4.3998 42.1999 4.2002 41.0999 4.2002C40.0999 4.2002 38.7999 4.5998 38.3999 4.7998L38.6998 2.7998C39.4998 2.5998 40.4999 2.2998 41.7999 2.2998ZM41.9999 7.8999C42.0999 7.5999 42.0998 7.4001 42.1998 7.1001H41.4999C40.9999 7.1001 40.0999 7.2998 39.7999 7.7998C39.3999 8.4998 39.8999 9 40.5999 9C41.2999 8.9 41.8999 8.5999 41.9999 7.8999ZM47.7999 0.100098H50.5999L48.2999 10.6001H45.4999L47.7999 0.100098ZM34.7999 0.200195C36.2999 0.200195 38.0999 1.3002 37.5999 3.7002C37.0999 5.9002 35.3999 7.2002 33.2999 7.2002H31.1998L30.3999 10.7002H27.3999L29.6998 0.200195H34.7999ZM34.6998 3.7002C34.8998 2.9002 34.3999 2.2998 33.5999 2.2998H32.1998L31.4999 5.2002H32.8999C33.6999 5.2002 34.4998 4.5002 34.6998 3.7002ZM14.7999 2.2998C16.6999 2.2998 18.7999 2.8002 18.2999 5.2002L17.1998 10.7002H14.3999L14.5999 9.7998C13.0999 11.2998 9.39988 11.4 9.99988 8C10.3999 6 12.4999 5.2998 15.5999 5.2998C15.6999 4.3998 15.0999 4.2002 14.0999 4.2002C13.0999 4.3002 11.7999 4.5998 11.3999 4.7998L11.6998 2.7998C12.3998 2.5998 13.4999 2.2998 14.7999 2.2998ZM14.9999 7.8999C14.9999 7.6999 15.0998 7.4002 15.1998 7.2002H14.4999C13.9999 7.2002 13.0999 7.2999 12.7999 7.8999C12.3999 8.4999 12.8999 9 13.4999 9C14.1999 9 14.8999 8.5999 14.9999 7.8999ZM25.4999 2.3999H28.2999L21.7999 14.2002H18.6998L20.6998 10.7002L19.5999 2.3999H22.2999L22.7999 7.2998L25.4999 2.3999ZM7.8999 0.100098C9.3999 0.100098 11.1998 1.3002 10.6998 3.7002C10.1998 5.9002 8.4999 7.2002 6.3999 7.2002H4.19983L3.49988 10.7002H0.399902L2.69983 0.100098H7.8999ZM7.79993 3.7002C8.09993 2.9002 7.59993 2.2998 6.79993 2.2998H5.29993L4.69983 5.2002H6.09985C6.89985 5.2002 7.69993 4.5002 7.79993 3.7002Z" fill="white"/>
</svg>
